<?xml version="1.0" encoding="UTF-8"?>
<svg id="Layer_1" xmlns="http://www.w3.org/2000/svg" version="1.1" viewBox="0 0 512 339">
  <!-- Generator: Adobe Illustrator 30.3.0, SVG Export Plug-In . SVG Version: 2.1.3 Build 182)  -->
  <defs>
    <style>
      .st0 {
        fill: #f0f6fa;
      }

      .st1 {
        fill: #c60404;
      }

      .st2 {
        fill: #dd3e3e;
      }
    </style>
  </defs>
  <path class="st2" d="M439.83,41.49c-37.53-13.43-78.99-23.39-118.44-14.07-27.51,6.48-53.71,15.81-81.97,24.5-14.69,4.51-25.56,7.32-32.6,8.4-17.33,2.66-36.73,3.31-58.23,1.98-23.69-1.47-50.54-6.33-80.57-14.59.17-3.71,2.03-5.62,5.94-4.78,38.06,8.1,76.71,12.3,114.36,11.25,14.9-.42,31.02-3.12,48.35-8.11,14.9-4.29,33.03-10.11,54.41-17.48,22.3-7.67,45.04-13.01,67.46-11.37,24.79,1.79,48.55,6.56,71.31,14.31,3.41,1.16,5.97,2.59,7.7,4.32,1.04,1.03,1.8,2.91,2.29,5.66v-.02Z"/>
  <path class="st1" d="M439.83,41.49c1.18,10.65,2,23.1,2.43,37.33,1.58,50.87,1.32,98.75-.78,143.64-.54,11.54-1.46,27.79-3.31,37.19-.92,4.65-3.86,6.19-8.79,4.63-28.42-8.99-57.17-12.12-86.22-9.43-19.83,1.83-36.23,7.92-53.04,17.59-19.43,11.16-37.05,21.66-58.2,27.18-8.4,2.19-19.2,3.51-32.4,3.95-37.33,1.27-74.34-3.62-111.01-14.66-3.87-1.17-4.34-5.4-5-10.09-1.41-9.95-2.46-19.86-3.15-29.71-3.05-43.73-7.05-104.24-12-181.53-.49-7.75-.62-14.39-.33-19.88,30.03,8.26,56.88,13.12,80.57,14.59,21.5,1.33,40.9.68,58.23-1.98,7.04-1.08,17.91-3.89,32.6-8.4,28.26-8.69,54.46-18.02,81.97-24.5,39.45-9.31,80.91.65,118.44,14.07h0Z"/>
  <path class="st0" d="M266.05,160.02l-1.8.45c-.53.14-1.07.08-1.53-.16-7.08-3.54-11.79-9.14-14.13-16.77-4.78-15.58-1.96-29.42,8.43-41.48,7.04-8.16,15.72-13.59,26.03-16.29.41-.1.67.41.36.68-4.04,3.57-8.39,8.1-7.25,13.75.1.52.34,1.02.71,1.42,3.88,4.43,4.72,9.68,2.5,15.75-1.54,4.23-3.06,7.22-4.53,8.94-7.89,9.22-16.14,20.4-8.37,32.62.27.4.04.96-.42,1.08h0Z"/>
  <path class="st0" d="M269.76,157.02c-.06-.66.12-1.44.53-2.34,4.35-9.51,16.15-26.01,28.27-25.79.53.02.86-.55.6-1l-.27-.45c-.09-.15-.25-.24-.43-.23-12,1.33-22.85,13.75-27.29,24.48-.11.25-.41.39-.66.3l-.06-.02c-.24-.09-.38-.34-.3-.58,4.49-17.71,15.87-35.43,33.63-41.07,14.8-4.73,25.33,8.69,27.57,22.25.08.51-.4.92-.88.75-.43-.15-2.03-1.73-3.08-2.34-6.88-4.06-10.41,2.93-14.04,8.33-2.98,4.42-7.04,7.27-12.15,8.54-4.05,1-7.79-1.7-11.19-3.38-.54-.27-1.14-.42-1.75-.44-8.19-.12-13.63,6.29-17.91,13.12-.17.25-.55.17-.58-.14h-.01Z"/>
  <path class="st1" d="M267.61,110.6l-.96,2.79c-.24.67.25,1.4.99,1.42l1,.03c.26,0,.48.21.5.46s-.15.5-.4.54c-2.85.54-4.17,1.58-3.95,3.06.04.29-.12.73-.5,1.33-.15.24-.51.23-.64-.03l-.93-1.71c-.25-.48-.84-.69-1.35-.49-.36.15-.67.25-.96.31s-.57-.09-.67-.36c-.11-.28.03-.58.28-.72,2.06-1.04,2.57-2.69,1.53-4.95-.17-.34.2-.72.55-.57l1.7.72c.54.24,1.2.06,1.56-.44.94-1.31,1.48-1.98,1.6-2.03.39-.16.78.21.65.62v.02Z"/>
  <path class="st2" d="M264.93,158.97c.29.23.24.67-.08.85l-.36.22c-.12.06-.25.04-.36-.03-10.54-8.81-9.45-26.15-4.17-37.22.18-.4.66-.57,1.07-.39l.03.02c.38.17.54.62.38.99-4.18,9.55-4.63,19.15-1.36,28.81.82,2.46,2.44,4.71,4.86,6.73v.02Z"/>
  <path class="st1" d="M307.83,122.72c.27-.3.76-.14.83.27.01.12-.32.88-.99,2.31-.24.52-.09,1.15.36,1.51l1.4,1.11c.3.22.15.7-.22.73-2.4.17-3.57,1.36-3.5,3.6,0,.27-.2.52-.48.55-.27.04-.54-.12-.62-.39-.07-.27-.13-.6-.18-.98-.08-.52-.51-.92-1.05-.92l-1.88.02c-.29,0-.46-.3-.33-.54.33-.6.63-.95.9-1.05,1.38-.5,1.63-2.08.78-4.75-.08-.24.04-.5.27-.6.22-.1.5-.02.61.21l.5.84c.36.6,1.2.69,1.68.18l1.92-2.11h0Z"/>
  <path class="st0" d="M265.96,165.03l.2.36c.1.17.06.39-.11.52-5.26,4.02-9.17,6.48-11.71,7.37-8.55,2.97-15.9,1.41-22.04-4.7-.24-.24-.61-.25-.87-.03l-.02.03c-.29.24-.3.67-.06.95,6.35,7.02,14.56,8.35,23.31,5.21,3.42-1.23,6.2-4.09,9.22-6.09.12-.08.27-.06.38.04.09.09.11.25.02.36-12.08,15.72-32.24,25.82-49.13,10.46-11.61-10.59-12.38-28.47-6.34-42.52.25-.6,1.15-.45,1.2.21.29,4.66,4.19,10.06,8.73,10.24,4.01.15,8-3.66,12.45-3.24,8.1.76,12.89,5.15,14.34,13.15,1.71,9.39,11.81,13.65,19.57,7.53.27-.22.68-.15.86.15h0Z"/>
  <path class="st0" d="M291.04,219.9c1.8-4.21,5.05-14.52-3.6-14.1-8.49.41-9.24-11.25-8-16.72,1.69-7.46,5.91-26.97-6.74-27.62-.38-.01-.57-.48-.32-.76,1.79-2.06,2.87-3.15,3.24-3.29,24.53-8.08,36.99,12.12,32.04,33.66-2.52,10.93-7.83,20.71-15.92,29.31-.15.15-.38.18-.55.06s-.25-.35-.17-.54h.02Z"/>
  <path class="st1" d="M230.13,158.55c.36.24.17,1.25-.57,3-.21.51-.03,1.11.43,1.41l1.56,1c.42.27.3.92-.18,1.02-1.01.21-1.6.27-1.81.2-.84-.35-1.85.51-2.1,1.78-.21,1-.39,1.64-.56,1.92-.29.47-.98.35-1.09-.18-.42-1.81-.65-2.75-.68-2.76-.03-.03-.98.1-2.82.39-.54.09-.9-.51-.57-.94.2-.26.72-.66,1.58-1.23,1.08-.71,1.5-1.96.87-2.61-.15-.17-.31-.75-.5-1.75-.09-.5.46-.84.89-.56l1.51,1.08c.45.31,1.06.25,1.46-.12,1.37-1.35,2.22-1.89,2.58-1.65h0Z"/>
  <path class="st2" d="M274.95,159.71c-.2.02-.38-.12-.41-.31v-.02c-.03-.19.1-.38.3-.42,12.46-2.61,20.15,9.84,19.86,20.69-.02.38-.32.67-.69.66h-.13c-.42-.01-.74-.36-.72-.78.4-10.5-6.98-20.58-18.21-19.82h0Z"/>
  <path class="st0" d="M217.72,227.31c5.54-.51,9.51-1.29,12.77-6.12,2.54-3.77,1.41-8.66,2.88-13.08,1.88-5.66,5.33-10.25,10.37-13.79,1.46-1.02,4.26-2.19,8.38-3.51,11.22-3.6,15.69-13.42,17.31-25.19.03-.27.39-.36.54-.12,1.5,2.45,2.38,4.25,2.66,5.39,3.75,16.17-1.21,33.34-10.54,46.84-8.67,12.57-24.53,20.96-39.41,14.05-2.23-1.04-3.99-2.26-5.27-3.67-.27-.3-.07-.78.31-.81h0Z"/>
  <path class="st2" d="M266.8,191.09c-2.85,6.44-6.66,11.87-11.38,16.29-.33.32-.66.51-.99.58-.44.12-.75-.42-.44-.75,5.15-5.29,9-10.84,11.58-16.67,2.58-5.82,4.11-12.4,4.57-19.77.03-.45.65-.58.86-.18.17.3.24.68.22,1.12-.09,6.48-1.57,12.93-4.42,19.37h0Z"/>
  <path class="st1" d="M296.61,182.42c.27-.31.78-.15.84.25.03.12-.29.92-.93,2.37-.24.55-.07,1.2.41,1.54l1.44,1.1c.31.22.17.7-.21.75-2.45.24-3.6,1.48-3.47,3.75.02.28-.18.54-.46.58-.29.06-.55-.12-.64-.39-.09-.27-.15-.6-.21-.97-.08-.54-.54-.92-1.08-.9l-1.92.06c-.29,0-.48-.3-.35-.56.33-.61.62-.97.9-1.08,1.38-.54,1.59-2.16.66-4.86-.09-.24.03-.51.25-.62.22-.12.51-.03.64.18l.53.86c.38.6,1.23.67,1.71.13l1.89-2.21v.02Z"/>
  <path class="st1" d="M251.37,207.78c.02.13-.33.93-1.03,2.4-.27.55-.12,1.21.36,1.59l1.44,1.15c.3.24.15.74-.24.77-2.51.17-3.72,1.39-3.66,3.72.02.3-.21.54-.5.58-.28.04-.57-.13-.65-.42-.07-.29-.13-.62-.18-1-.08-.55-.53-.96-1.08-.96h-1.97c-.28,0-.46-.32-.33-.57.34-.62.66-.97.94-1.08,1.42-.51,1.71-2.16.84-4.95-.07-.25.04-.51.29-.61.24-.11.51-.02.65.21l.51.88c.36.63,1.25.74,1.74.2l2.01-2.19c.29-.31.81-.13.85.29h.01Z"/>
</svg>