<?xml version="1.0" encoding="UTF-8"?>
<svg id="Layer_1" xmlns="http://www.w3.org/2000/svg" version="1.1" viewBox="0 0 726.13 1477.51">
  <!-- Generator: Adobe Illustrator 30.3.0, SVG Export Plug-In . SVG Version: 2.1.3 Build 182)  -->
  <defs>
    <style>
      .st0 {
        fill: #f0d310;
      }

      .st1 {
        fill: #f4d4b7;
      }

      .st2 {
        fill: #77848c;
      }

      .st3 {
        fill: #7c809a;
      }

      .st4 {
        fill: #703b3a;
      }

      .st5 {
        fill: #ffffd5;
      }

      .st6 {
        fill: #213569;
      }

      .st7 {
        fill: #5c3b2d;
      }

      .st8 {
        fill: #ece3ba;
      }

      .st9 {
        fill: #ae8456;
      }

      .st10 {
        fill: #56554f;
      }

      .st11 {
        fill: #eb9495;
      }

      .st12, .st13 {
        fill: #bc091e;
      }

      .st12, .st14 {
        opacity: .45;
      }

      .st15 {
        fill: #ba8d80;
      }

      .st16 {
        fill: #e6c590;
      }

      .st17 {
        fill: #d8d2b0;
      }

      .st18 {
        fill: #fff;
      }

      .st19 {
        fill: #54738e;
      }

      .st20 {
        fill: #573617;
      }

      .st21 {
        fill: #d42616;
      }

      .st22 {
        fill: #ffe3bb;
      }

      .st23 {
        opacity: .54;
      }

      .st24 {
        fill: #f0e9b7;
      }

      .st25 {
        fill: #e34f80;
      }

      .st26 {
        fill: #b2ad92;
      }

      .st27 {
        fill: #7c7a71;
      }

      .st28 {
        fill: #eecb83;
      }

      .st29 {
        fill: #917891;
      }

      .st30 {
        fill: #a3b4c5;
      }

      .st31 {
        fill: #242125;
      }

      .st32 {
        fill: #e17266;
      }

      .st33 {
        fill: #bc9d80;
      }

      .st34 {
        fill: #d1b281;
      }

      .st35 {
        fill: #69443e;
      }

      .st36 {
        fill: #d0687f;
      }

      .st37 {
        fill: #b59380;
      }

      .st38 {
        fill: #e5c58d;
      }
    </style>
  </defs>
  <g class="st14">
    <path class="st13" d="M-1329.94-1161.18c-2.17,1.09-7.07,2.25-13.43,2.25-18.09,0-27.41-11.26-27.41-26.17,0-17.86,12.73-27.8,28.58-27.8,6.13,0,10.79,1.24,12.89,2.33l-2.41,9.4c-2.41-1.01-5.75-1.94-9.94-1.94-9.4,0-16.7,5.67-16.7,17.32,0,10.48,6.21,17.08,16.77,17.08,3.57,0,7.53-.78,9.86-1.71l1.79,9.24Z"/>
    <path class="st13" d="M-1322.79-1214.83h11.8v21.66h.16c1.24-1.63,2.8-2.87,4.66-3.88,1.71-.93,3.96-1.48,6.13-1.48,7.53,0,13.28,5.2,13.28,16.62v22.21h-11.8v-20.89c0-4.97-1.71-8.39-6.13-8.39-3.11,0-5.05,2.02-5.9,4.12-.31.78-.39,1.79-.39,2.64v22.52h-11.8v-55.13Z"/>
    <path class="st13" d="M-1265.09-1208.23c0,3.26-2.49,5.9-6.37,5.9s-6.21-2.64-6.13-5.9c-.08-3.42,2.41-5.98,6.21-5.98s6.21,2.56,6.29,5.98ZM-1277.29-1159.7v-37.97h11.8v37.97h-11.8Z"/>
    <path class="st13" d="M-1256.01-1185.56c0-4.74-.16-8.77-.31-12.11h10.25l.54,5.2h.23c1.55-2.41,5.44-6.06,11.73-6.06,7.77,0,13.59,5.12,13.59,16.31v22.52h-11.8v-21.04c0-4.89-1.71-8.23-5.98-8.23-3.26,0-5.2,2.25-5.98,4.43-.31.7-.47,1.86-.47,2.95v21.9h-11.8v-25.86Z"/>
    <path class="st13" d="M-1188.91-1159.7l-.7-3.81h-.23c-2.49,3.03-6.37,4.66-10.87,4.66-7.69,0-12.27-5.59-12.27-11.65,0-9.86,8.85-14.6,22.29-14.52v-.54c0-2.02-1.09-4.89-6.91-4.89-3.88,0-8,1.32-10.48,2.87l-2.17-7.61c2.64-1.48,7.84-3.34,14.75-3.34,12.66,0,16.7,7.45,16.7,16.38v13.2c0,3.65.16,7.14.54,9.24h-10.64ZM-1190.31-1177.64c-6.21-.08-11.03,1.4-11.03,5.98,0,3.03,2.02,4.5,4.66,4.5,2.95,0,5.36-1.94,6.13-4.35.16-.62.23-1.32.23-2.02v-4.12Z"/>
  </g>
  <g class="st23">
    <path class="st6" d="M-1591.03-1341.85c5.48,2.81,13.9,5.61,22.59,5.61,9.36,0,14.3-3.88,14.3-9.76s-4.28-8.82-15.11-12.7c-14.97-5.21-24.73-13.5-24.73-26.6,0-15.37,12.83-27.14,34.09-27.14,10.16,0,17.65,2.14,22.99,4.54l-4.55,16.44c-3.61-1.74-10.03-4.28-18.85-4.28s-13.1,4.01-13.1,8.69c0,5.75,5.08,8.29,16.71,12.7,15.91,5.88,23.39,14.17,23.39,26.87,0,15.11-11.63,27.94-36.36,27.94-10.29,0-20.45-2.67-25.53-5.48l4.14-16.84Z"/>
    <path class="st6" d="M-1499.06-1410.96v34.62h33.55v-34.62h20.32v90.1h-20.32v-37.7h-33.55v37.7h-20.45v-90.1h20.45Z"/>
    <path class="st6" d="M-1406.41-1343.99l-6.42,23.13h-21.12l27.54-90.1h26.74l27.94,90.1h-21.92l-6.95-23.13h-25.8ZM-1383.55-1359.23l-5.61-19.12c-1.6-5.35-3.21-12.03-4.55-17.38h-.27c-1.34,5.35-2.67,12.17-4.14,17.38l-5.35,19.12h19.92Z"/>
    <path class="st6" d="M-1339.71-1320.86v-90.1h23.8l18.72,33.02c5.35,9.49,10.69,20.72,14.71,30.88h.4c-1.34-11.9-1.74-24.06-1.74-37.56v-26.34h18.72v90.1h-21.39l-19.25-34.76c-5.35-9.62-11.23-21.26-15.64-31.82l-.4.13c.53,11.9.8,24.6.8,39.3v27.14h-18.72Z"/>
    <path class="st6" d="M-1172.2-1325.01c-6.28,2.14-18.18,5.08-30.08,5.08-16.44,0-28.34-4.14-36.63-12.16-8.29-7.75-12.83-19.52-12.7-32.75.13-29.94,21.92-47.06,51.47-47.06,11.63,0,20.59,2.27,25,4.41l-4.28,16.31c-4.95-2.14-11.1-3.88-20.99-3.88-16.98,0-29.81,9.63-29.81,29.14s11.63,29.54,28.34,29.54c4.68,0,8.42-.53,10.03-1.34v-18.85h-13.9v-15.91h33.55v47.46Z"/>
    <path class="st6" d="M-1135.84-1410.96v34.62h33.55v-34.62h20.32v90.1h-20.32v-37.7h-33.55v37.7h-20.45v-90.1h20.45Z"/>
    <path class="st6" d="M-1043.2-1343.99l-6.42,23.13h-21.12l27.54-90.1h26.74l27.94,90.1h-21.92l-6.95-23.13h-25.8ZM-1020.34-1359.23l-5.62-19.12c-1.6-5.35-3.21-12.03-4.54-17.38h-.27c-1.34,5.35-2.67,12.17-4.14,17.38l-5.35,19.12h19.92Z"/>
    <path class="st6" d="M-956.04-1410.96v90.1h-20.45v-90.1h20.45Z"/>
  </g>
  <path class="st12" d="M-2120.99-1253.95c141.19-2.83,282.37-4.3,423.56-5.31,70.59-.63,141.19-.77,211.78-1.14l211.78-.38,211.78.36,105.89.48,52.95.25,52.95.4c141.19,1,282.37,2.49,423.56,5.33-141.19,2.84-282.37,4.33-423.56,5.33l-52.95.4-52.95.25-105.89.48-211.78.36-211.78-.38c-70.59-.37-141.19-.51-211.78-1.14-141.19-1-282.37-2.48-423.56-5.31Z"/>
  <g>
    <rect class="st17" x="301.1" y="615.69" width="23.18" height="394.67"/>
    <rect class="st10" x="301.1" y="615.69" width="7.01" height="394.67"/>
    <rect class="st17" x="347.44" y="615.69" width="23.18" height="394.67"/>
    <rect class="st10" x="364.49" y="615.69" width="6.13" height="394.67"/>
    <g>
      <g>
        <rect class="st31" x="317.46" y="653.95" width="37.27" height="22.29"/>
        <rect class="st22" x="318.64" y="655.11" width="35.17" height="19.98"/>
        <rect class="st25" x="318.64" y="662.92" width="35.17" height="4.65"/>
      </g>
      <g>
        <rect class="st31" x="317.46" y="714.14" width="37.27" height="22.29"/>
        <rect class="st22" x="318.64" y="715.29" width="35.17" height="19.98"/>
        <rect class="st25" x="318.64" y="723.11" width="35.17" height="4.65"/>
      </g>
      <g>
        <rect class="st31" x="317.46" y="774.33" width="37.27" height="22.29"/>
        <rect class="st22" x="318.64" y="775.48" width="35.17" height="19.98"/>
        <rect class="st25" x="318.64" y="783.29" width="35.17" height="4.65"/>
      </g>
      <g>
        <rect class="st31" x="317.46" y="834.51" width="37.27" height="22.29"/>
        <rect class="st22" x="318.64" y="835.67" width="35.17" height="19.98"/>
        <rect class="st25" x="318.64" y="843.48" width="35.17" height="4.65"/>
      </g>
      <g>
        <rect class="st31" x="317.46" y="894.7" width="37.27" height="22.29"/>
        <rect class="st22" x="318.64" y="895.86" width="35.17" height="19.98"/>
        <rect class="st25" x="318.64" y="903.67" width="35.17" height="4.65"/>
      </g>
      <g>
        <rect class="st31" x="317.46" y="954.89" width="37.27" height="22.29"/>
        <rect class="st22" x="318.64" y="956.04" width="35.17" height="19.98"/>
        <rect class="st25" x="318.64" y="963.85" width="35.17" height="4.65"/>
      </g>
    </g>
    <g>
      <path class="st38" d="M409.03,1051.73c0,6.35-.84,12.49-2.44,18.32-8.04,29.74-35.2,51.59-67.47,51.59s-59.43-21.85-67.47-51.59c-1.6-5.84-2.44-11.97-2.44-18.32,0-.51,0-1.02.05-1.53,0-1.21.05-2.39.16-3.58.6-8.72,2.84-17,6.39-24.55,11.14-23.78,35.29-40.27,63.31-40.27s52.17,16.48,63.31,40.27c3.56,7.56,5.79,15.83,6.39,24.55.12,1.19.16,2.37.16,3.58.05.51.05,1.02.05,1.53Z"/>
      <path class="st24" d="M408.99,1050.19h-139.73c0-1.21.05-2.39.16-3.58h139.41c.12,1.19.16,2.37.16,3.58Z"/>
      <g>
        <path class="st20" d="M290.25,1083.6c0,1-.81,1.82-1.82,1.82s-1.82-.81-1.82-1.82.81-1.82,1.82-1.82,1.82.81,1.82,1.82Z"/>
        <path class="st20" d="M304.73,1083.6c0,1-.81,1.82-1.82,1.82s-1.82-.81-1.82-1.82.81-1.82,1.82-1.82,1.82.81,1.82,1.82Z"/>
        <path class="st20" d="M319.21,1083.6c0,1-.81,1.82-1.82,1.82s-1.82-.81-1.82-1.82.81-1.82,1.82-1.82,1.82.81,1.82,1.82Z"/>
        <path class="st20" d="M333.69,1083.6c0,1-.81,1.82-1.82,1.82s-1.82-.81-1.82-1.82.81-1.82,1.82-1.82,1.82.81,1.82,1.82Z"/>
        <path class="st20" d="M348.18,1083.6c0,1-.81,1.82-1.82,1.82s-1.82-.81-1.82-1.82.81-1.82,1.82-1.82,1.82.81,1.82,1.82Z"/>
        <path class="st20" d="M362.66,1083.6c0,1-.81,1.82-1.82,1.82s-1.82-.81-1.82-1.82.81-1.82,1.82-1.82,1.82.81,1.82,1.82Z"/>
        <path class="st20" d="M377.14,1083.6c0,1-.81,1.82-1.82,1.82s-1.82-.81-1.82-1.82.81-1.82,1.82-1.82,1.82.81,1.82,1.82Z"/>
        <path class="st20" d="M391.62,1083.6c0,1-.81,1.82-1.82,1.82s-1.82-.81-1.82-1.82.81-1.82,1.82-1.82,1.82.81,1.82,1.82Z"/>
      </g>
      <g>
        <circle class="st20" cx="288.43" cy="1012.18" r="1.82"/>
        <circle class="st20" cx="302.91" cy="1012.18" r="1.82"/>
        <circle class="st20" cx="317.39" cy="1012.18" r="1.82"/>
        <circle class="st20" cx="331.88" cy="1012.18" r="1.82"/>
        <circle class="st20" cx="346.36" cy="1012.18" r="1.82"/>
        <path class="st20" d="M362.66,1012.18c0,1-.81,1.82-1.82,1.82s-1.82-.81-1.82-1.82.81-1.82,1.82-1.82,1.82.81,1.82,1.82Z"/>
        <path class="st20" d="M377.14,1012.18c0,1-.81,1.82-1.82,1.82s-1.82-.81-1.82-1.82.81-1.82,1.82-1.82,1.82.81,1.82,1.82Z"/>
        <path class="st20" d="M391.62,1012.18c0,1-.81,1.82-1.82,1.82s-1.82-.81-1.82-1.82.81-1.82,1.82-1.82,1.82.81,1.82,1.82Z"/>
      </g>
      <path class="st32" d="M408.83,1046.61h-139.41c.6-8.72,2.84-17,6.39-24.55h126.62c3.56,7.56,5.79,15.83,6.39,24.55Z"/>
      <path class="st35" d="M409.03,1051.73c0,6.35-.84,12.49-2.44,18.32h-134.94c-1.6-5.84-2.44-11.97-2.44-18.32,0-.51,0-1.02.05-1.53h139.73c.05.51.05,1.02.05,1.53Z"/>
      <path class="st18" d="M274.07,1046.97c-.22,0-.44-.04-.65-.11-1.04-.36-1.6-1.5-1.24-2.54l7.07-20.54c.29-.84,1.06-1.46,1.99-1.34.89.05,1.64.68,1.85,1.55l3.14,13.59,4.55-13.77c.28-.85,1.04-1.46,1.98-1.37.89.04,1.65.66,1.87,1.52l3.34,13.62,4.36-13.75c.27-.85,1-1.38,1.96-1.39.89.02,1.66.64,1.88,1.5l3.53,13.65,4.16-13.73c.26-.85,1.12-1.45,1.94-1.42.89.01,1.67.61,1.9,1.47l3.73,13.68,3.97-13.71c.25-.85,1.03-1.44,1.92-1.44h0c.89,0,1.68.59,1.92,1.45l3.92,13.7,3.78-13.68c.24-.86,1.01-1.46,1.91-1.47h.02c.88,0,1.66.58,1.92,1.43l4.11,13.72,3.58-13.66c.22-.86,1-1.47,1.89-1.49.89.05,1.69.55,1.95,1.4l4.31,13.74,3.39-13.63c.22-.86.98-1.48,1.87-1.52.97.08,1.7.53,1.97,1.38l4.5,13.76,3.2-13.6c.21-.87.96-1.5,1.85-1.54.95-.09,1.7.51,1.99,1.35l4.7,13.78,3.01-13.57c.19-.87.94-1.51,1.83-1.56.95-.11,1.71.49,2.01,1.33l4.89,13.8,2.81-13.54c.18-.88.92-1.52,1.81-1.59.87-.08,1.71.46,2.02,1.3l7.56,20.54c.38,1.04-.15,2.19-1.19,2.57-1.04.37-2.19-.15-2.57-1.19l-5.14-13.98-2.85,13.7c-.18.88-.93,1.53-1.82,1.59-.88.11-1.72-.48-2.02-1.33l-4.95-13.96-3.04,13.73c-.2.88-.95,1.52-1.84,1.56-.93.13-1.71-.5-2-1.35l-4.75-13.95-3.24,13.76c-.21.88-.97,1.5-1.86,1.54-.92-.05-1.71-.53-1.98-1.38l-4.55-13.93-3.43,13.79c-.22.87-.99,1.49-1.88,1.52-1.04.05-1.7-.55-1.97-1.4l-4.36-13.91-3.63,13.82c-.23.87-1,1.48-1.9,1.49-.9.04-1.69-.57-1.95-1.43l-4.16-13.89-3.82,13.84c-.24.86-1.02,1.46-1.92,1.47-.98-.12-1.69-.59-1.93-1.45l-3.96-13.86-4.02,13.87c-.25.86-1.03,1.44-1.92,1.44h-.02c-.9,0-1.68-.61-1.91-1.47l-3.77-13.84-4.21,13.89c-.26.86-.98,1.55-1.96,1.42-.9-.02-1.67-.63-1.89-1.5l-3.57-13.81-4.41,13.91c-.27.85-1.13,1.31-1.97,1.39-.9-.03-1.66-.65-1.88-1.52l-3.38-13.78-4.61,13.93c-.28.85-1.06,1.45-1.99,1.37-.9-.04-1.65-.67-1.86-1.55l-3.18-13.75-4.8,13.95c-.29.83-1.06,1.35-1.89,1.35Z"/>
      <path class="st18" d="M385.07,1068.83s-.05,0-.08,0c-.41-.03-.76-.31-.88-.71l-3.79-12.59-5.89,12.73c-.17.37-.53.63-.97.58-.41-.03-.76-.3-.89-.7l-4.03-12.61-5.65,12.71c-.17.38-.53.6-.96.59-.41-.02-.77-.29-.9-.68l-4.27-12.63-5.41,12.7c-.16.38-.54.64-.95.61-.41-.01-.77-.28-.91-.66l-4.51-12.64-5.17,12.69c-.15.38-.52.62-.93.62h-.01c-.41,0-.78-.26-.92-.65l-4.75-12.66-4.93,12.68c-.15.38-.52.64-.93.64h0c-.41,0-.78-.25-.93-.63l-4.99-12.68-4.69,12.66c-.14.39-.51.64-.92.65-.36-.04-.79-.23-.94-.62l-5.23-12.69-4.45,12.64c-.14.39-.5.65-.91.67-.38-.04-.79-.23-.95-.61l-5.47-12.7-4.21,12.62c-.13.39-.49.66-.9.68-.47.02-.79-.21-.96-.59l-5.71-12.71-3.97,12.61c-.12.39-.47.67-.89.7-.42.04-.8-.2-.97-.57l-7.07-15.11c-.23-.5-.02-1.1.48-1.33.5-.22,1.1-.02,1.33.48l5.98,12.79,3.98-12.66c.12-.39.48-.67.89-.7.42.05.8.21.97.59l5.74,12.78,4.22-12.68c.13-.39.49-.66.91-.68.46-.02.8.23.96.61l5.5,12.76,4.47-12.7c.14-.39.5-.66.92-.67.51,0,.79.23.95.62l5.26,12.75,4.71-12.71c.14-.39.51-.65.93-.65h0c.41,0,.78.25.93.63l5.02,12.73,4.95-12.73c.15-.38.52-.64.93-.64.42-.1.79.26.94.65l4.78,12.72,5.19-12.75c.15-.38.52-.62.93-.62h.02c.42,0,.78.27.92.66l4.53,12.7,5.43-12.76c.16-.38.47-.66.96-.61.41.02.78.29.91.68l4.29,12.69,5.67-12.77c.17-.38.5-.57.97-.59.41.02.77.3.9.7l4.05,12.67,5.92-12.79c.18-.38.57-.65.98-.57.41.03.77.31.89.71l3.81,12.65,6.16-12.79c.18-.38.59-.6.99-.56.41.04.76.32.88.72l3.57,12.63,6.4-12.8c.25-.5.85-.68,1.34-.45.49.25.69.85.45,1.34l-7.56,15.11c-.19.37-.59.62-.99.55-.41-.04-.76-.33-.87-.72l-3.55-12.57-6.13,12.73c-.17.35-.52.57-.9.57Z"/>
    </g>
    <g>
      <rect class="st28" x="324.81" y="467.19" width="26.52" height="41.49"/>
      <rect class="st16" x="326.39" y="391.55" width="23.35" height="74.88"/>
      <rect class="st34" x="331.33" y="276.17" width="13.47" height="85.06"/>
      <rect class="st33" x="334.76" y="197.56" width="6.61" height="78.61"/>
      <rect class="st30" x="335.41" y="80.74" width="5.31" height="110.71"/>
      <g>
        <path class="st15" d="M359.43,379.34c0,1.14-.09,2.26-.28,3.35-.02.3-.07.58-.14.86-.26,1.35-.65,2.63-1.16,3.86-3.16,7.79-10.83,13.3-19.79,13.3s-16.6-5.51-19.79-13.3c-.51-1.23-.91-2.51-1.16-3.86-.07-.28-.12-.56-.14-.86-.19-1.09-.28-2.21-.28-3.35,0-4.98,1.7-9.53,4.53-13.16,3.91-5,10-8.21,16.83-8.21s12.93,3.21,16.83,8.21c2.84,3.63,4.53,8.18,4.53,13.16Z"/>
        <path class="st16" d="M359.02,383.55c-.26,1.35-.65,2.63-1.16,3.86h-39.57c-.51-1.23-.91-2.51-1.16-3.86h41.9Z"/>
        <path class="st11" d="M359.43,379.34c0,1.14-.09,2.26-.28,3.35h-42.18c-.19-1.09-.28-2.21-.28-3.35,0-4.98,1.7-9.53,4.53-13.16h33.67c2.84,3.63,4.53,8.18,4.53,13.16Z"/>
      </g>
      <ellipse class="st19" cx="338.07" cy="277.44" rx="11.81" ry="3.89"/>
      <path class="st3" d="M347.44,195.89c0,3.77-4.2,6.83-9.37,6.83s-9.37-3.06-9.37-6.83,4.2-6.83,9.37-6.83,9.37,3.06,9.37,6.83Z"/>
      <ellipse class="st9" cx="338.07" cy="468.35" rx="19.04" ry="5.38"/>
      <rect class="st7" x="321.79" y="347.95" width="32.55" height="7.99" rx="1" ry="1"/>
    </g>
    <g>
      <path class="st37" d="M403.85,565.44c0,3.91-.35,7.7-1,11.39-.35,2.02-.79,4.02-1.33,5.98-.37,1.42-.81,2.81-1.3,4.19-.53,1.65-1.16,3.25-1.86,4.81-10.18,23.48-33.55,39.87-60.75,39.87s-50.59-16.39-60.75-39.87c-.7-1.56-1.33-3.16-1.86-4.81-.49-1.37-.93-2.77-1.3-4.19-.53-1.95-1-3.95-1.35-5.98-.65-3.7-.98-7.49-.98-11.39,0-.46,0-.95.05-1.44,0-1.14.05-2.28.16-3.39.56-8.25,2.67-16.09,6.04-23.25.56-1.19,1.14-2.32,1.77-3.46,3-5.53,6.77-10.6,11.16-15.04,2.28-2.3,4.72-4.44,7.3-6.39,11.07-8.32,24.83-13.25,39.76-13.25s28.67,4.93,39.76,13.25c2.58,1.95,5.02,4.09,7.3,6.39,4.39,4.44,8.16,9.51,11.16,15.04.63,1.14,1.21,2.28,1.77,3.46,3.35,7.16,5.46,15,6.05,23.25.12,1.12.16,2.26.16,3.39.05.49.05.98.05,1.44Z"/>
      <path class="st36" d="M403.85,565.44c0,3.91-.35,7.7-1,11.39h-130.5c-.65-3.7-.98-7.49-.98-11.39,0-.46,0-.95.05-1.44,0-1.14.05-2.28.16-3.39.56-8.25,2.67-16.09,6.04-23.25.56-1.19,1.14-2.32,1.77-3.46h116.43c.63,1.14,1.21,2.28,1.77,3.46,3.35,7.16,5.46,15,6.05,23.25.12,1.12.16,2.26.16,3.39.05.49.05.98.05,1.44Z"/>
      <path class="st1" d="M395.83,533.89h-116.43c3-5.53,6.77-10.6,11.16-15.04h94.12c4.39,4.44,8.16,9.51,11.16,15.04Z"/>
      <path class="st4" d="M384.67,518.84h-94.12c2.28-2.3,4.72-4.44,7.3-6.39h79.51c2.58,1.95,5.02,4.09,7.3,6.39Z"/>
      <path class="st8" d="M400.22,586.99c-.53,1.65-1.16,3.25-1.86,4.81h-121.5c-.7-1.56-1.33-3.16-1.86-4.81h125.22Z"/>
      <g>
        <path class="st18" d="M396.36,573c-.24,0-.45-.17-.49-.41l-6.12-32.48-3.45,32.44c-.03.25-.23.44-.48.45-.24.05-.46-.16-.51-.41l-5.89-32.48-3.68,32.44c-.03.25-.23.44-.48.45h-.02c-.24,0-.45-.18-.49-.41l-5.66-32.48-3.91,32.45c-.03.25-.24.44-.48.44h-.01c-.24,0-.45-.18-.49-.42l-5.44-32.47-4.13,32.45c-.03.25-.24.43-.49.44h0c-.25,0-.46-.18-.5-.42l-5.21-32.47-4.36,32.46c-.03.25-.24.43-.49.43h0c-.25,0-.46-.18-.49-.43l-4.98-32.46-4.59,32.46c-.03.25-.24.43-.49.43h0c-.25,0-.46-.18-.49-.43l-4.75-32.46-4.81,32.46c-.04.25-.25.43-.49.43h0c-.25,0-.46-.18-.49-.43l-4.53-32.46-5.04,32.47c-.04.24-.25.42-.49.42h0c-.25,0-.46-.19-.49-.43l-4.3-32.46-5.27,32.47c-.04.24-.25.42-.49.42h0c-.25,0-.46-.19-.49-.44l-4.07-32.45-5.5,32.47c-.04.24-.25.42-.49.42h-.01c-.25,0-.46-.2-.48-.44l-3.85-32.45-5.72,32.48c-.05.27-.3.45-.58.41-.27-.05-.46-.31-.41-.58l6.31-35.82c.04-.25.3-.38.51-.41.25,0,.45.2.48.44l3.84,32.37,5.48-32.39c.04-.24.25-.42.49-.42h0c.25,0,.45.19.49.44l4.06,32.37,5.26-32.39c.04-.24.25-.42.49-.42h0c.25,0,.46.19.49.43l4.29,32.38,5.03-32.39c.04-.24.25-.42.49-.42h0c.25,0,.46.18.49.43l4.51,32.38,4.8-32.38c.04-.25.25-.43.49-.43h0c.25,0,.46.18.49.43l4.74,32.38,4.58-32.38c.03-.25.24-.43.49-.43h0c.25,0,.46.18.5.43l4.97,32.38,4.35-32.38c.03-.25.24-.43.49-.43.23-.05.46.18.5.42l5.19,32.39,4.12-32.37c.03-.25.24-.43.49-.44.22-.05.46.17.5.42l5.42,32.39,3.9-32.37c.03-.25.23-.43.48-.44h.01c.24,0,.45.18.49.41l5.65,32.39,3.67-32.36c.03-.25.23-.44.48-.45.3-.04.46.17.51.41l5.87,32.4,3.44-32.36c.03-.25.23-.43.48-.45.25-.04.47.17.51.41l6.74,35.82c.05.27-.13.54-.4.59-.03,0-.06,0-.09,0Z"/>
        <path class="st18" d="M317.9,573c-.24,0-.45-.18-.49-.42l-5.42-32.39-3.9,32.37c-.03.25-.23.43-.48.44h-.01c-.24,0-.45-.18-.49-.41l-5.65-32.39-3.67,32.36c-.03.25-.23.44-.48.45h-.02c-.24,0-.45-.17-.49-.41l-5.87-32.4-3.44,32.36c-.03.25-.23.43-.48.45h-.02c-.24,0-.45-.17-.49-.41l-6.74-35.82c-.05-.27.13-.54.4-.59.28-.05.53.13.58.4l6.12,32.48,3.45-32.44c.03-.25.23-.44.48-.45.3-.04.46.17.51.41l5.89,32.48,3.68-32.44c.03-.25.23-.44.48-.45h.02c.24,0,.45.18.49.41l5.66,32.48,3.91-32.45c.03-.25.24-.44.48-.44.25-.05.46.17.5.42l5.44,32.47,4.13-32.45c.03-.25.24-.43.49-.44h0c.25,0,.46.18.5.42l5.21,32.47,4.36-32.46c.03-.25.24-.43.49-.43h0c.25,0,.46.18.49.43l4.98,32.46,4.59-32.46c.03-.25.24-.43.49-.43h0c.25,0,.46.18.49.43l4.75,32.46,4.81-32.46c.04-.25.25-.43.49-.43h0c.25,0,.46.18.49.43l4.53,32.46,5.04-32.47c.04-.25.28-.48.5-.42.25,0,.46.19.49.43l4.3,32.46,5.27-32.47c.04-.25.25-.42.49-.42h0c.25,0,.46.19.49.44l4.07,32.45,5.49-32.47c.04-.25.28-.43.5-.42.25,0,.45.2.48.44l3.85,32.45,5.72-32.48c.05-.27.3-.45.58-.41.27.05.46.31.41.58l-6.31,35.82c-.04.24-.25.41-.49.41h-.01c-.25,0-.45-.2-.48-.44l-3.84-32.37-5.48,32.39c-.04.24-.25.42-.49.42h0c-.25,0-.46-.19-.49-.44l-4.06-32.37-5.25,32.39c-.04.25-.25.42-.49.42h0c-.25,0-.46-.19-.49-.43l-4.29-32.38-5.03,32.39c-.04.24-.25.42-.49.42h0c-.25,0-.46-.18-.49-.43l-4.51-32.38-4.8,32.38c-.04.25-.25.43-.49.43h0c-.25,0-.46-.18-.49-.43l-4.74-32.38-4.58,32.38c-.03.25-.24.43-.49.43h0c-.25,0-.46-.18-.5-.43l-4.97-32.38-4.35,32.38c-.03.25-.24.43-.49.43h0c-.25,0-.45-.18-.49-.42l-5.19-32.39-4.12,32.37c-.03.25-.24.43-.49.44h0Z"/>
      </g>
    </g>
    <path class="st26" d="M486.88,1299.94l-19.13,11.04-111.6-193.28s0-.02-.02-.07c-.73-1.36-1.37-7.6,4.49-11.69.05-.05.12-.09.19-.12l1.72-1,.02-.02c7.95-3.74,11.7.4,12.76,1.88.02.05,111.58,193.25,111.58,193.25Z"/>
    <rect class="st10" x="298.21" y="1190.44" width="11.63" height="112.82" transform="translate(-554.01 292.47) rotate(-28.25)"/>
    <rect class="st10" x="323.56" y="1232.93" width="112.82" height="11.63" transform="translate(-772.86 647.27) rotate(-45.79)"/>
    <circle class="st18" cx="414.78" cy="1197.16" r="17"/>
    <path class="st26" d="M352.68,1112.23v193.3h-28.67v-193.09s.84-8.6,15.11-8.6c12.97,0,13.55,7.09,13.55,8.39Z"/>
    <path class="st26" d="M308.11,1100.56c-10.97-3.5-13.9,2.66-13.9,2.66l-59.4,203.7,21.2,6.18,59.4-203.7s1.7-5.98-7.31-8.85Z"/>
    <circle class="st18" cx="275.33" cy="1197.16" r="17"/>
    <rect class="st27" x="217.05" y="1278.72" width="330.15" height="37.59"/>
    <g>
      <rect class="st29" x="335.41" y="163.95" width="5.31" height="8.64"/>
      <rect class="st29" x="335.41" y="137.24" width="5.31" height="8.64"/>
      <rect class="st29" x="335.41" y="110.54" width="5.31" height="8.64"/>
    </g>
  </g>
  <rect class="st2" x="-3273.87" y="262.6" width="30.46" height="36.11"/>
  <rect class="st5" x="-3260.39" y="282.46" width="205.16" height="16.25"/>
  <g>
    <rect class="st21" x="-1318.9" y="-1109.84" width="90.06" height="60"/>
    <polygon class="st0" points="-1302.05 -1097.51 -1303.89 -1103.57 -1305.77 -1097.64 -1312.23 -1097.56 -1307.42 -1093.81 -1309.11 -1087.63 -1303.9 -1091.54 -1298.75 -1087.63 -1300.72 -1093.73 -1295.34 -1097.59 -1302.05 -1097.51"/>
    <polygon class="st0" points="-1287.95 -1083.45 -1287.86 -1085.57 -1289.15 -1083.94 -1291.1 -1084.64 -1289.96 -1082.87 -1291.32 -1081.32 -1289.21 -1081.8 -1288.07 -1080.03 -1288.08 -1082.12 -1286.01 -1082.72 -1287.95 -1083.45"/>
    <polygon class="st0" points="-1282.28 -1089.73 -1283.01 -1091.73 -1283.57 -1089.73 -1285.64 -1089.63 -1283.92 -1088.43 -1284.58 -1086.48 -1282.81 -1087.73 -1281.08 -1086.53 -1281.89 -1088.45 -1280.2 -1089.8 -1282.28 -1089.73"/>
    <polygon class="st0" points="-1280.83 -1099.83 -1282.7 -1098.93 -1284.18 -1100.45 -1283.88 -1098.39 -1285.74 -1097.46 -1283.67 -1097.06 -1283.48 -1095.01 -1282.38 -1096.87 -1280.3 -1096.48 -1281.82 -1097.91 -1280.83 -1099.83"/>
    <polygon class="st0" points="-1287.8 -1106.49 -1289.14 -1104.91 -1291.11 -1105.7 -1290.01 -1103.94 -1291.33 -1102.34 -1289.28 -1102.81 -1288.28 -1101.01 -1288.02 -1103.16 -1285.96 -1103.63 -1287.93 -1104.33 -1287.8 -1106.49"/>
  </g>
</svg>