<?xml version="1.0" encoding="UTF-8"?>
<svg id="Layer_1" xmlns="http://www.w3.org/2000/svg" version="1.1" viewBox="0 0 946.41 768">
  <!-- Generator: Adobe Illustrator 30.3.0, SVG Export Plug-In . SVG Version: 2.1.3 Build 182)  -->
  <defs>
    <style>
      .st0 {
        fill: #0f100f;
      }

      .st1 {
        fill: #f4dd74;
      }

      .st2 {
        fill: #b0ccd4;
      }

      .st3 {
        fill: #fff;
      }

      .st4 {
        fill: #324789;
      }

      .st5 {
        fill: #c63036;
      }

      .st6 {
        display: none;
      }
    </style>
  </defs>
  <g id="_x23_ffffffff" class="st6">
    <path class="st3" d="M-223.15,0h1408v768H-223.15V0M820.94,135.1c-90.04,3.41-180.08,6.77-270.12,10.06-18.96.72-37.99.76-56.85,3.11-71.69,8-143.41,15.78-215.16,23.25-.49-.01-1.47-.03-1.96-.03-.1-.76-.31-2.29-.41-3.05,4.53-.07,9.1.38,13.61-.22,2.09-.49,1.9-2.88.99-4.34-4.07-7.99-7.94-16.07-11.76-24.17-1.01-1.73-1.87-4.47-4.31-4.39-4.29-.07-8.61-.23-12.89.07-1.37.06-1.71,1.69-2.27,2.65-3.73,8.55-6.88,17.37-11.26,25.62-1.19,1.69-.32,4.32,1.79,4.69,4.32.64,8.72.12,13.07.12-.03,1.53-.06,3.07-.1,4.61-12.8,1.17-25.55,2.8-38.36,3.87-2.47.24-5.94.45-6.5,3.5-2.09,5.86,2.6,10.81,6.36,14.64,7.34,7.25,15.39,14.94,25.78,17.26-2.38,3.92-4.28,8.11-6.45,12.15-19.61,37.8-39.34,75.56-57.87,113.91-5.11,9.68-8.67,20.07-12.52,30.29-7.33,1.64-14.98,2.26-21.97,5.16-2.87.88-6.3-.56-8.94,1.06-4.04,7.34-4.79,15.91-5.32,24.12-.12,10.48.57,21.45,5.31,30.99,2.79,2.02,6.73.73,9.97,1.05,1.61,2.14,3.43,4.1,5.35,5.97-.93,1.98-1.35,4.11-1.36,6.3.67.02,2.03.04,2.71.06-1.81,1.52-2.27,3.71-.94,5.73-.43,2.35.22,4.64.73,6.93-18.57.99-36.98,4.8-54.61,10.68-6.46,2.28-12.98,4.63-18.81,8.28-1.4,1.02-3.4,2.05-3.39,4.05,1.22,3.29,5.35,3.37,8.25,4.17,21.06,3.83,42.82,5.22,62.84,13.4-2.96,9.8-5.75,19.67-8.55,29.53-15.78-.91-31.74,2.71-45.49,10.52-17.2,9.48-30.53,25.47-37.25,43.87-6.35,17.44-6.61,37.05-.62,54.62,5.49,16.78,17.08,31.27,31.56,41.24,25.88,18.03,62.35,19,89.06,2.16,13.99-8.59,25.21-21.57,31.74-36.63,7.89-17.44,9.15-37.68,4.02-56.08,2.26,1.42,4.55,2.8,6.9,4.1,1.32,5.09,2.57,10.55,6.05,14.66,1.74,2.26,4.6,2.99,7.2,3.77.11,9.92.25,19.89,1.39,29.75,2.09,5.09,7.56,8,12.32,10.25,2.19-.51.57-3.16.59-4.56-2.25-11.68-2.18-23.64-3.41-35.43,8.98-.1,17.96-.2,26.93.1,1.45,3.16,3.73,5.96,6.86,7.59,4.49,2.73,9.91,2.47,14.96,2.48,42.29-.02,84.58.03,126.88-.13,6.62.2,13.36-3.6,15.71-9.96,52.77-.65,105.54.34,158.3-.03,1.09.06,1.72-.45,1.87-1.55,1-4.72,1.62-9.51,2.3-14.28,17.28,3.53,34.65,6.62,51.95,10.06-1.89,21.96,5.83,44.38,20.69,60.64,18.99,21.07,49.33,31.53,77.19,25.61,22.11-4.16,41.86-18.45,53.37-37.69,11.17-18.2,14.98-40.88,9.76-61.63,4.78-2.42,9.79-4.33,14.61-6.67.07,16.33-.3,32.69.2,49,2.34,3.66,7.09,5.05,11.15,5.91,3.21.41,2.83-3.86,3.12-5.93.12-18.54,0-37.09.12-55.63,2.71-1.08,5.42-2.18,8.13-3.27.87,5.22,6.65,4.9,10.72,4.81,2.7.01,6.06-1.07,6.7-4.07.92-5.35.39-10.83.38-16.22,8.31.1,16.63.02,24.95-.01,2.73.09,5.62-.83,7.25-3.17,1.81-2.43,1.17-5.61,1.3-8.42-.15-4.63.18-9.26-.05-13.87-.27-3.54-3.74-6.08-7.12-6.15-5.03-.14-10.07-.02-15.1-.09.11-3.47.14-6.94.03-10.41,2.77-.23,6.03.35,8.29-1.66,1.68-1.39,2.14-3.67,2.11-5.74.01-8.36.04-16.72,0-25.07-.08-2.1-.09-4.58-1.81-6.06-2.23-2.19-5.66-1.49-8.48-1.64-.04-2.29-.07-4.57-.12-6.85.44-.34,1.31-1.01,1.74-1.35.34-3.45,1.66-8.2-2.3-10.02.01-1.3.03-2.6.08-3.9,1.45-.53,3.02-1.34,3.13-3.1.79-2.62-1.76-4.14-3.23-5.79.01-4.16.22-8.32.09-12.47,3.76-1.79,3.46-6.94-.15-8.72.14-4.99.23-9.99.16-14.98,3.91-1.34,3.78-7-.04-8.37-.21-9.68.13-19.37-.12-29.05,6.84.87,14.13-2.21,17.85-8.1,4.33-6.31,4.82-14.83,1.59-21.72-3.15-8.21-10.92-13.95-19.45-15.55.06-38.86.22-77.73-.15-116.59,1.47-.12,2.94-.24,4.44-.38.2-4.08.22-8.18.82-12.23,1.99-12.76,8.38-24.39,9.94-37.23.87-6.07.43-12.61-2.54-18.07-3.12-5.71-10.13-7.71-16.23-7.57-18.99.16-37.95,1.3-56.92,1.87Z"/>
    <path class="st3" d="M843.55,214.97c.65-2.14,1.06-4.36,1.8-6.48,7.91.43,15.83.26,23.74.2.06,38.69.01,77.39-.05,116.08-9-.07-18-.02-27-.17-.55-35.21-.2-70.43-.32-105.64-.4-1.71.94-2.77,1.83-3.99Z"/>
    <path class="st3" d="M288.97,216.24c66.56-.02,133.12,0,199.68,0-.1,55.6-.01,111.2-.01,166.8-.09,2.19.34,4.46-.21,6.6-1.83,2.47-4.47,4.15-6.58,6.36-.32-17.99-.22-35.99-.32-53.97.13-4-2.69-7.89-6.66-8.68-4.93-.85-9.98-.42-14.95-.49-3.66.04-6.57,2.93-7.83,6.17-1.1,2.83-.84,5.92-.93,8.9.06,27.69-.04,55.39.03,83.08-.11,4.05,1.94,8.38,5.77,10.1,4.38,2.27,9.47,1.66,14.23,1.77-.08,3.62-.06,7.24.08,10.86-2.1-2.33-4.37-4.69-7.4-5.75-5.39-2.33-11.38-1.32-17.06-1.51-28.97.16-57.94.11-86.92.17-5.07-.13-10.71,1.09-13.99,5.3-4.08,4.72-2.6,11.36-2.76,17.06-.23,3.45,1.08,7.07,4.23,8.81-5.8,7.59-11.33,17.84-7.54,27.5-21.9.01-43.78,1.3-65.67,1.75-2.19-6.04-5.56-11.56-7.8-17.57-.49-5.47-.37-11.11.31-16.55,6.25-6.24,12.97-12.08,18.61-18.9-4.12-11.78-8.95-23.3-13.14-35.04,2.73-8.78,6.22-17.39,9.77-25.88,4.48-1.97,8.75-4.54,11.52-8.72,3.35.9,7.42,1.73,9.58-1.76,6.59,2.37,13.34,4.23,20.07,6.13,2.34.61,3.04,3.91,5.73,3.8,7.64.06,11.63-11,6.93-16.49-2.09-2.3-5.2-1.13-7.8-.85-6.73-2.09-13.44-4.22-20.17-6.25-1.59-6.37-9.99-9.33-15.11-5.17-6.34-1.43-12.46-3.68-18.83-4.99-4.3-.91-8.66,2.75-8.49,7.16-.44,4.25,3.1,7.47,6.95,8.38-2.94,7.89-5.03,16.14-8.57,23.77-2.63-6.6-4.91-13.4-8.28-19.66-2.73-4.66-8.75-2.77-13.13-3.65-.13-3.08-.47-6.22.32-9.23,4.31-17.78,9.98-35.19,15.33-52.67,9.98-32.34,20.77-64.43,31.01-96.7Z"/>
    <path class="st3" d="M501.2,216.15c3.19.03,6.39.03,9.6.02-.3,56.58.28,113.19-.3,169.75-2.11-5.18-4.05-11.03-9.26-13.94.23-24.66.12-49.32.16-73.97-.17-27.29.19-54.58-.2-81.86Z"/>
    <path class="st3" d="M523.46,216.09c35.4.23,70.8-.06,106.2.13,1.17,6.36,4.22,12.56,9.65,16.31,4.4,3.4,10.15,3.98,15.53,3.86,32.66-.05,65.33.14,98-.07,2.83.12,5.42-1.1,8.07-1.92,8.95-.46,17.97.43,26.91-.4,9.13-1.23,16.02-8.96,18.19-17.61,7.75.14,15.5,0,23.25.15.24,36.1.03,72.19.08,108.29-6.53-.24-13.26.45-19.08,3.62-8.54,4.46-14.66,12.68-17.98,21.58-5.2,14.29-10.14,28.66-15.33,42.95-34.7.65-69.43-.09-104.13.31-7.64.73-13.95,7.94-13.73,15.62-.35,6.44,3.4,13.49,9.84,15.41,4.41.97,8.96,1.13,13.47,1.27,1.04-.6,2.09-1.47,3.4-1.15,5.18.82,10.45.38,15.67.31.05.18.15.54.19.72-5.59-.63-11.28-.59-16.86.09-5.05.57-10.24-1-15.15.79-6.48,1.48-11.79,6.49-14.21,12.6-1.3,2.91-1.36,6.15-1.89,9.25-4.64.46-10.7-1.88-13.89,2.61-15.41,15.3-31.25,30.17-46.31,45.81-20.51-.06-41.02.03-61.52-.05-1.02-.26-3.63.59-3.15-1.34.06-12.36.1-24.73-.17-37.09-1.76-.26-3.52-.44-5.27-.59.09-5.36.19-10.72.15-16.08,4.72-.37,9.28-3.06,11.28-7.45,2.41-4.94,1.86-10.65,1.61-15.96-.5-6.91-5.75-13.5-12.87-14.22.02-62.58-.05-125.16.05-187.75Z"/>
    <path class="st3" d="M638.82,216.24c5.17-.02,10.35-.08,15.53-.05.81,3.85,2.38,7.52,4.84,10.61-4.6-.19-9.45.53-13.81-1.29-3.65-1.69-5.51-5.6-6.56-9.27Z"/>
    <path class="st3" d="M663.66,216.26c33.76.01,67.52-.11,101.28.07-1.22,3.32-2.96,6.81-5.99,8.79-28.05-.22-56.11.1-84.17,0-5.43.36-9.54-4.07-11.12-8.86Z"/>
    <path class="st3" d="M771.2,225.12c1.57-2.83,2.65-5.89,3.51-9.01,7.27.02,14.55.07,21.83,0-1.67,4.42-5.68,8.43-10.61,8.6-4.91.28-9.83-.02-14.73.4Z"/>
    <path class="st3" d="M295.82,381.82c-8.12-3.66-4.17-16.53,3.77-17.55-3.33,2.22-6.63,5.4-6.64,9.71-.37,2.97,1.4,5.45,2.87,7.84Z"/>
    <path class="st3" d="M866.41,372.61c.47-1.3,1.35-2.37,2.45-3.19.78,10.03.03,20.11.35,30.16-4.33.16-8.65.15-12.98.09,3.59-8.95,6.47-18.16,10.18-27.06Z"/>
    <path class="st3" d="M287.17,378.8c1.34.99,3.59,2.03,3.54,3.91-1.78,2.82-4.51,4.82-7.53,6.13,1.43-3.31,2.61-6.72,3.99-10.04Z"/>
    <path class="st3" d="M499.39,389.69c.2-1.12.47-2.23.73-3.33.33.58.99,1.74,1.31,2.33-.28.37-.85,1.12-1.13,1.5,3.11,5.57,2.23,12.37-.04,18.07-1.75-6.08.19-12.44-.87-18.57Z"/>
    <path class="st3" d="M492.08,403.1c.47-4.33.93-9.06,4.48-12.07-1.13,4.16-3.64,7.79-4.48,12.07Z"/>
    <path class="st3" d="M670.04,403.03c2.47-2.09,5.86-1.67,8.86-1.7,9.6.03,19.21.24,28.81-.04-5.46,3.21-9.57,8.93-9.38,15.46-7.17.26-14.36.03-21.52.34-2.73-.08-5.97.19-7.95-2.06-3.21-3.35-2.66-9.35,1.18-12Z"/>
    <path class="st3" d="M716.86,402.54c46.33-.36,92.65.45,138.98.12,8.57.59,17.16.66,25.77.62.01.32.02.95.03,1.27-29.62.25-59.27.08-88.88.25-.53.26-1.6.8-2.14,1.07-.21-.4-.63-1.22-.84-1.62-.26.28-.79.86-1.05,1.15-21.62-.59-43.24-1.17-64.87-.75-5.9.19-13.07-1.06-17.43,3.94-5.77,5.67-1.91,17.49,6.42,17.88,16.34.29,32.69-.16,49.04,0,2.65.12,5.25-.45,7.79-1.19-1.6-1.12-3.22-2.2-4.76-3.36.44-.09,1.33-.25,1.77-.33,4.46,2.53,9.65-.14,11.74-4.43l-.37-1.07c.36.39,1.1,1.17,1.46,1.56.27-.42.82-1.25,1.09-1.67l-.2,1.12c.52.83,1.1,1.67,1.66,2.51.05.36.15,1.08.2,1.44-.96-1.17-2.02-2.23-3.1-3.26-1.64,3.02-4.49,5.02-6.54,7.7,2.07.11,4.16.17,6.25.1-1.24.88-2.43,1.83-3.59,2.79-2.73-.09-5.45-.06-8.17.01,0,.52-.01,1.54-.02,2.05,2.37,1.17,4.99,2.27,6.46,4.63.86.84,1.27,2.42,2.58,2.69,2.36-3.03,4.43-6.63,8.19-8.12,1.04-.22,2.09-.39,3.16-.55,2.21,3.1,5.21,5.52,7.4,8.65.71-1.1,1.44-2.19,2.18-3.27.1.47.31,1.43.41,1.91-1.65,4.06,2.08,6.9,4.94,9.01v1.4c-3.06-1.95-5.71-4.45-7.62-7.53-1.81,2.99-4.12,5.62-6.04,8.53-.26-.64-.53-1.28-.78-1.91,2.31-2.2,5.69-4.95,4.54-8.56-1.61-3.08-4.87-6.49-8.67-5.59-3.7,1.69-6.85,5.59-5.58,9.85-.02.47-.06,1.41-.08,1.88-.85-1.4-1.61-2.83-2.34-4.27-1.77,3.37-4.46,6.1-7.81,7.9l-.51-1.4c3.57-1.07,7.02-4.74,5.71-8.69-2.07-3.73-7.5-6.94-11.4-4.04-2.12,1.31-2.68,3.9-3.55,6.05,1.04,2.47,2.42,4.86,4.74,6.35-.32-.04-.97-.11-1.29-.15-5.52-2.06-5.54-11.03-.13-13.29,1.21-.54,4.64-1.87,2.5-3.23-17.05-.35-34.12.02-51.17-.22-9.17-.33-14.36-12.28-9.33-19.58,2.93-4.28,8.09-6.69,13.25-6.35Z"/>
    <path class="st3" d="M740.25,408.44c2.79-.3,5.62-.28,8.44-.21-.23,2,.87,4.91-1.37,6.07-3.58,1.85-7.44-2.29-7.07-5.86Z"/>
    <path class="st3" d="M760.41,408.32c.55-.05,1.65-.15,2.2-.2-.05.65-.14,1.96-.19,2.61h-1.89c-.03-.6-.09-1.8-.12-2.41Z"/>
    <path class="st3" d="M817.06,408.5c.65.04,1.97.1,2.63.13-.7.84-1.43,1.65-2.18,2.42-.11-.64-.34-1.91-.45-2.55Z"/>
    <path class="st3" d="M846.87,423.2c2.04-4.98,4.04-9.98,5.99-15,5.33-.79,10.82-.09,16.23-.27-.01,5.16,0,10.32.1,15.48-7.44-.14-14.89.18-22.32-.21Z"/>
    <path class="st3" d="M706.86,416.73c-.36-4.57,3.67-8.53,8.16-8.57-.02,3.34.61,6.87,3.35,9.11-3.84-.23-7.68-.24-11.51-.54Z"/>
    <path class="st3" d="M722.4,408.46c3.02-.14,6.06-.14,9.1.02-.62,2.61-2.7,5.23-5.65,4.91-2.5-.14-3.27-2.89-3.45-4.93Z"/>
    <path class="st3" d="M523.48,412.05c5.27,1.26,5.29,7.69,5.24,12.02.37,3.97-1.35,8.25-5.34,9.63-.16-7.21,0-14.44.1-21.65Z"/>
    <path class="st3" d="M506.91,417.55c1.13-1.58,2.27-3.14,3.49-4.65-.1,1.44-.2,2.9-.31,4.35-1.07.09-2.13.19-3.18.3Z"/>
    <path class="st3" d="M707.72,420.53c17.06-.39,34.12-.2,51.18-.11,1.12-.06,1.87.5,2.24,1.66-7.41.51-14.84-.91-22.23.11-7.36.29-14.73-.09-22.09.07-3.09-.02-6.52.28-9.1-1.73Z"/>
    <path class="st3" d="M837.9,444.86c1.76-4.3,3.66-8.56,4.82-13.08,8.78-.28,17.57-.15,26.37-.13-.17,4.44-.16,8.89-.04,13.33-5.4.52-10.81-.32-16.2.04-4.99.08-9.99.29-14.95-.16Z"/>
    <path class="st3" d="M479.77,445.55c.21-3.57.6-7.13,1.52-10.59,2.41,1.2,4.84,2.39,7.35,3.39.01,2.25.04,4.49.09,6.74-2.99.18-5.98.37-8.96.46Z"/>
    <path class="st3" d="M161.45,438.55l.28.76c.11.31.35.95.46,1.27,2.38.5,4.89.84,6.93,2.28-2.59-.22-5.12-.78-7.64-1.32-.01-.75-.02-2.24-.03-2.99Z"/>
    <path class="st3" d="M474.64,442.83c.48-.1,1.44-.3,1.92-.4.48,11.04-.41,22.09.69,33.1-1.05.05-2.1.12-3.13.19.7-10.95-.13-21.93.52-32.89Z"/>
    <path class="st3" d="M501,444.09c3.15,1.38,6.34,2.68,9.57,3.87.08,2.41.18,4.83.35,7.24-3.2-1.49-6.53-2.81-9.46-4.8-.48-2.07-.35-4.21-.46-6.31Z"/>
    <path class="st3" d="M160.73,446.73c2.68.07,5.34-.37,7.92-1.12.21.31.63.92.84,1.23-2.56,1.96-5.95.59-8.76-.11Z"/>
    <path class="st3" d="M832.57,457.33c.69-1.59.96-4.33,3.35-3.94,11.05-.06,22.1-.13,33.16-.11-.03,1.34-.03,2.7-.03,4.05-12.16.26-24.32-.05-36.48,0Z"/>
    <path class="st3" d="M250.04,488.02c3.19-2.21,5.97-4.97,8.69-7.78-.75,1.42-1.6,2.8-2.43,4.18,2.21,7.82,5.56,15.24,8.77,22.68-4.6.61-9.1,1.92-13.79,1.38-.49-6.81-1.19-13.63-1.24-20.46Z"/>
    <path class="st3" d="M184.46,517.28c.2-.02.62-.06.82-.08,3.57,2.56,7.01,5.3,10.6,7.85,2.07,1.19,2.1,3.81,2.74,5.86,2.13,9.35,4.54,18.64,6.95,27.93-7.31-9.42-16.4-17.46-27.08-22.85,2.15-6.19,3.81-12.53,5.97-18.71Z"/>
    <path class="st3" d="M606.74,567.72c4.45.18,9.01-1.89,13.29.03,13.2,3.95,26.64,7.09,39.92,10.81-1.13,3.03-2.15,6.11-2.7,9.31-17.34-3.57-34.8-6.54-52.07-10.43.56-3.23,1.09-6.47,1.56-9.72Z"/>
  </g>
  <g id="_x23_0f100fff">
    <path class="st0" d="M820.94,135.1c18.97-.57,37.93-1.71,56.92-1.87,6.1-.14,13.11,1.86,16.23,7.57,2.97,5.46,3.41,12,2.54,18.07-1.56,12.84-7.95,24.47-9.94,37.23-.6,4.05-.62,8.15-.82,12.23-1.5.14-2.97.26-4.44.38.37,38.86.21,77.73.15,116.59,8.53,1.6,16.3,7.34,19.45,15.55,3.23,6.89,2.74,15.41-1.59,21.72-3.72,5.89-11.01,8.97-17.85,8.1.25,9.68-.09,19.37.12,29.05,3.82,1.37,3.95,7.03.04,8.37.07,4.99-.02,9.99-.16,14.98,3.61,1.78,3.91,6.93.15,8.72.13,4.15-.08,8.31-.09,12.47,1.47,1.65,4.02,3.17,3.23,5.79-.11,1.76-1.68,2.57-3.13,3.1-.05,1.3-.07,2.6-.08,3.9,3.96,1.82,2.64,6.57,2.3,10.02-.43.34-1.3,1.01-1.74,1.35.05,2.28.08,4.56.12,6.85,2.82.15,6.25-.55,8.48,1.64,1.72,1.48,1.73,3.96,1.81,6.06.04,8.35.01,16.71,0,25.07.03,2.07-.43,4.35-2.11,5.74-2.26,2.01-5.52,1.43-8.29,1.66.11,3.47.08,6.94-.03,10.41,5.03.07,10.07-.05,15.1.09,3.38.07,6.85,2.61,7.12,6.15.23,4.61-.1,9.24.05,13.87-.13,2.81.51,5.99-1.3,8.42-1.63,2.34-4.52,3.26-7.25,3.17-8.32.03-16.64.11-24.95.01.01,5.39.54,10.87-.38,16.22-.64,3-4,4.08-6.7,4.07-4.07.09-9.85.41-10.72-4.81-2.71,1.09-5.42,2.19-8.13,3.27-.12,18.54,0,37.09-.12,55.63-.29,2.07.09,6.34-3.12,5.93-4.06-.86-8.81-2.25-11.15-5.91-.5-16.31-.13-32.67-.2-49-4.82,2.34-9.83,4.25-14.61,6.67,5.22,20.75,1.41,43.43-9.76,61.63-11.51,19.24-31.26,33.53-53.37,37.69-27.86,5.92-58.2-4.54-77.19-25.61-14.86-16.26-22.58-38.68-20.69-60.64-17.3-3.44-34.67-6.53-51.95-10.06-.68,4.77-1.3,9.56-2.3,14.28-.15,1.1-.78,1.61-1.87,1.55-52.76.37-105.53-.62-158.3.03-2.35,6.36-9.09,10.16-15.71,9.96-42.3.16-84.59.11-126.88.13-5.05-.01-10.47.25-14.96-2.48-3.13-1.63-5.41-4.43-6.86-7.59-8.97-.3-17.95-.2-26.93-.1,1.23,11.79,1.16,23.75,3.41,35.43-.02,1.4,1.6,4.05-.59,4.56-4.76-2.25-10.23-5.16-12.32-10.25-1.14-9.86-1.28-19.83-1.39-29.75-2.6-.78-5.46-1.51-7.2-3.77-3.48-4.11-4.73-9.57-6.05-14.66-2.35-1.3-4.64-2.68-6.9-4.1,5.13,18.4,3.87,38.64-4.02,56.08-6.53,15.06-17.75,28.04-31.74,36.63-26.71,16.84-63.18,15.87-89.06-2.16-14.48-9.97-26.07-24.46-31.56-41.24-5.99-17.57-5.73-37.18.62-54.62,6.72-18.4,20.05-34.39,37.25-43.87,13.75-7.81,29.71-11.43,45.49-10.52,2.8-9.86,5.59-19.73,8.55-29.53-20.02-8.18-41.78-9.57-62.84-13.4-2.9-.8-7.03-.88-8.25-4.17-.01-2,1.99-3.03,3.39-4.05,5.83-3.65,12.35-6,18.81-8.28,17.63-5.88,36.04-9.69,54.61-10.68-.51-2.29-1.16-4.58-.73-6.93-1.33-2.02-.87-4.21.94-5.73-.68-.02-2.04-.04-2.71-.06.01-2.19.43-4.32,1.36-6.3-1.92-1.87-3.74-3.83-5.35-5.97-3.24-.32-7.18.97-9.97-1.05-4.74-9.54-5.43-20.51-5.31-30.99.53-8.21,1.28-16.78,5.32-24.12,2.64-1.62,6.07-.18,8.94-1.06,6.99-2.9,14.64-3.52,21.97-5.16,3.85-10.22,7.41-20.61,12.52-30.29,18.53-38.35,38.26-76.11,57.87-113.91,2.17-4.04,4.07-8.23,6.45-12.15-10.39-2.32-18.44-10.01-25.78-17.26-3.76-3.83-8.45-8.78-6.36-14.64.56-3.05,4.03-3.26,6.5-3.5,12.81-1.07,25.56-2.7,38.36-3.87.04-1.54.07-3.08.1-4.61-4.35,0-8.75.52-13.07-.12-2.11-.37-2.98-3-1.79-4.69,4.38-8.25,7.53-17.07,11.26-25.62.56-.96.9-2.59,2.27-2.65,4.28-.3,8.6-.14,12.89-.07,2.44-.08,3.3,2.66,4.31,4.39,3.82,8.1,7.69,16.18,11.76,24.17.91,1.46,1.1,3.85-.99,4.34-4.51.6-9.08.15-13.61.22.1.76.31,2.29.41,3.05.49,0,1.47.02,1.96.03,71.75-7.47,143.47-15.25,215.16-23.25,18.86-2.35,37.89-2.39,56.85-3.11,90.04-3.29,180.08-6.65,270.12-10.06M807.94,138.65c-38.04,1.68-76.1,2.86-114.15,4.36-54.29,1.78-108.57,4.2-162.87,5.95-9.7.47-19.44.36-29.11,1.45-25.36,2.61-50.65,5.92-76.01,8.48-49.39,5.35-98.76,10.95-148.2,15.77-.03,1.27-.05,2.55-.07,3.83-4.57.2-9.14.3-13.71.42-.17-.66-.5-1.98-.67-2.63-8.44.85-16.88,1.79-25.33,2.62-5.35.59-10.78.65-16.01,2.01,8.35,6.51,17.14,12.6,26.46,17.69,7,3.75,14.54,7.07,22.59,7.41,10.68.39,21.35-.28,32.03-.13,193.32-.2,386.63.09,579.94-.25.36-4.25.4-8.54,1.31-12.72,2.24-11.9,8.21-22.83,9.48-34.94.32-5.92.63-12.7-3.46-17.51-3.68-3.85-9.37-4.2-14.37-4.1-22.63.3-45.24,1.52-67.85,2.29M263.16,138.34c-3.89,9.07-7.48,18.3-12.04,27.07,12.48.45,24.99,0,37.49.08-4.88-8.79-9.07-17.94-13.36-27.02-4.03.03-8.06,0-12.09-.13M266.43,168.5c-.04,2.47-.12,4.94-.25,7.4,2.77.09,5.53,0,8.3-.16-.33-2.49-.61-4.97-.9-7.46-2.39.08-4.77.16-7.15.22M257.42,206.22c-1.09,2.33-2.24,4.61-3.49,6.85,2.93-.31,5.9-1.03,8.86-.58,3.64,1.39,4.36,6.05,3.64,9.44-1.25,4.56-3.9,8.55-5.84,12.83-17.1,33.97-33.69,68.19-50.72,102.2-2.39,4.66-4.75,9.89-9.63,12.44-4.76,3.1-10.44.41-15.35-.79-2.47,6.56-5.44,12.92-7.72,19.55,5.05.98,10.05,2.24,15.13,3.13,5.5.93,10.98-.58,16.45-1.01,9.66-1.2,19.37-2.02,29.09-2.74,1.43.21,1.33-1.55,1.67-2.42,2.59-10.9,5.88-21.62,9.04-32.37,12.85-41.4,25.99-82.73,39.76-123.84-10.31-.35-21.03,1.15-30.89-2.69M656.04,208.46c.21,6.4,1.94,13.06,6.45,17.82,3.87,4.12,9.85,5.28,15.29,5.21,35.01.1,70.03.05,105.04-.23,4.42-.06,9-.96,12.61-3.69,5.91-4.38,8.64-11.8,9.34-18.9-1.15-.02-2.3-.02-3.43-.03-.82,3.64-1.3,7.45-3.12,10.77-2.34,4.32-6.6,7.79-11.58,8.35-9.24,1.08-18.55-.1-27.82.34-27.64.1-55.29.04-82.93.09-5.49.14-10.95-2.89-13.56-7.74-2.12-3.53-2.06-7.77-2.3-11.75-1.34-.08-2.68-.16-3.99-.24M513.61,208.81c.73,8.37.3,16.78.4,25.17,0,74.61-.06,149.22.01,223.83,2.12-.07,4.24-.13,6.37-.2-.2-26.55.13-53.09-.02-79.63.17-56.27-.19-112.55.24-168.81-2.34-.14-4.67-.27-7-.36M832.49,209.12c-.27,38.54.22,77.07-.26,115.61,2.23-.01,4.46-.01,6.71.03.2-6.58-.29-13.15-.2-19.72.11-31.93-.29-63.86.15-95.78-2.14-.04-4.28-.08-6.4-.14M843.55,214.97c-.89,1.22-2.23,2.28-1.83,3.99.12,35.21-.23,70.43.32,105.64,9,.15,18,.1,27,.17.06-38.69.11-77.39.05-116.08-7.91.06-15.83.23-23.74-.2-.74,2.12-1.15,4.34-1.8,6.48M872.15,208.87c.24,63.62-.11,127.23.03,190.84,2.12-.04,4.25-.07,6.4-.09.06-63.62-.11-127.24.09-190.86-2.19-.04-4.36-.02-6.52.11M491.67,210.86c.15,57.06-.15,114.12.09,171.18,1.78-1.86,1.92-4.7,3.65-6.6,1.28-1.65,3.33-3.09,2.86-5.46.03-53.03-.01-106.07-.08-159.1-2.18-.01-4.35-.02-6.52-.02M631.91,211.47c.5,3.95,1.04,8.01,2.98,11.57,2.76,5.68,8.59,9.93,15.01,10.11,6.3.3,12.63.09,18.94.36-2.3-1.14-4.48-2.55-6.88-3.47-6.41-.99-13.83,1.48-19.41-2.79-4.99-3.64-7.07-9.82-7.02-15.8-1.22,0-2.43.01-3.62.02M763.11,225.45c1.66-.27,3.71.16,5.06-1.1,2.85-3.57,3.71-8.21,4.31-12.62-.94.1-2.8.31-3.74.41-.67,4.87-2.11,9.7-5.63,13.31M251.78,216.89c-20.42,38.54-40.21,77.44-59.59,116.52-1.8,4.08-4.21,7.92-5.44,12.24,3.19.77,6.39,2.33,9.74,1.86,4.51-1.39,7.47-5.46,9.43-9.53,16.75-33.87,33.28-67.86,50.29-101.6,2.31-4.39,4.62-8.8,6.46-13.42,1.08-2.31.77-4.87.34-7.29-3.76.11-7.56.37-11.23,1.22M288.97,216.24c-10.24,32.27-21.03,64.36-31.01,96.7-5.35,17.48-11.02,34.89-15.33,52.67-.79,3.01-.45,6.15-.32,9.23,4.38.88,10.4-1.01,13.13,3.65,3.37,6.26,5.65,13.06,8.28,19.66,3.54-7.63,5.63-15.88,8.57-23.77-3.85-.91-7.39-4.13-6.95-8.38-.17-4.41,4.19-8.07,8.49-7.16,6.37,1.31,12.49,3.56,18.83,4.99,5.12-4.16,13.52-1.2,15.11,5.17,6.73,2.03,13.44,4.16,20.17,6.25,2.6-.28,5.71-1.45,7.8.85,4.7,5.49.71,16.55-6.93,16.49-2.69.11-3.39-3.19-5.73-3.8-6.73-1.9-13.48-3.76-20.07-6.13-2.16,3.49-6.23,2.66-9.58,1.76-2.77,4.18-7.04,6.75-11.52,8.72-3.55,8.49-7.04,17.1-9.77,25.88,4.19,11.74,9.02,23.26,13.14,35.04-5.64,6.82-12.36,12.66-18.61,18.9-.68,5.44-.8,11.08-.31,16.55,2.24,6.01,5.61,11.53,7.8,17.57,21.89-.45,43.77-1.74,65.67-1.75-3.79-9.66,1.74-19.91,7.54-27.5-3.15-1.74-4.46-5.36-4.23-8.81.16-5.7-1.32-12.34,2.76-17.06,3.28-4.21,8.92-5.43,13.99-5.3,28.98-.06,57.95-.01,86.92-.17,5.68.19,11.67-.82,17.06,1.51,3.03,1.06,5.3,3.42,7.4,5.75-.14-3.62-.16-7.24-.08-10.86-4.76-.11-9.85.5-14.23-1.77-3.83-1.72-5.88-6.05-5.77-10.1-.07-27.69.03-55.39-.03-83.08.09-2.98-.17-6.07.93-8.9,1.26-3.24,4.17-6.13,7.83-6.17,4.97.07,10.02-.36,14.95.49,3.97.79,6.79,4.68,6.66,8.68.1,17.98,0,35.98.32,53.97,2.11-2.21,4.75-3.89,6.58-6.36.55-2.14.12-4.41.21-6.6,0-55.6-.09-111.2.01-166.8-66.56,0-133.12-.03-199.68,0M501.2,216.15c.39,27.28.03,54.57.2,81.86-.04,24.65.07,49.31-.16,73.97,5.21,2.91,7.15,8.76,9.26,13.94.58-56.56,0-113.17.3-169.75-3.21,0-6.41,0-9.6-.02M523.46,216.09c-.1,62.59-.03,125.17-.05,187.75,7.12.72,12.37,7.31,12.87,14.22.25,5.31.8,11.02-1.61,15.96-2,4.39-6.56,7.08-11.28,7.45.04,5.36-.06,10.72-.15,16.08,1.75.15,3.51.33,5.27.59.27,12.36.23,24.73.17,37.09-.48,1.93,2.13,1.08,3.15,1.34,20.5.08,41.01-.01,61.52.05,15.06-15.64,30.9-30.51,46.31-45.81,3.19-4.49,9.25-2.15,13.89-2.61.53-3.1.59-6.34,1.89-9.25,2.42-6.11,7.73-11.12,14.21-12.6,4.91-1.79,10.1-.22,15.15-.79,5.58-.68,11.27-.72,16.86-.09-.04-.18-.14-.54-.19-.72-5.22.07-10.49.51-15.67-.31-1.31-.32-2.36.55-3.4,1.15-4.51-.14-9.06-.3-13.47-1.27-6.44-1.92-10.19-8.97-9.84-15.41-.22-7.68,6.09-14.89,13.73-15.62,34.7-.4,69.43.34,104.13-.31,5.19-14.29,10.13-28.66,15.33-42.95,3.32-8.9,9.44-17.12,17.98-21.58,5.82-3.17,12.55-3.86,19.08-3.62-.05-36.1.16-72.19-.08-108.29-7.75-.15-15.5,0-23.25-.15-2.17,8.65-9.06,16.38-18.19,17.61-8.94.83-17.96-.06-26.91.4-2.65.82-5.24,2.04-8.07,1.92-32.67.21-65.34.02-98,.07-5.38.12-11.13-.46-15.53-3.86-5.43-3.75-8.48-9.95-9.65-16.31-35.4-.19-70.8.1-106.2-.13M638.82,216.24c1.05,3.67,2.91,7.58,6.56,9.27,4.36,1.82,9.21,1.1,13.81,1.29-2.46-3.09-4.03-6.76-4.84-10.61-5.18-.03-10.36.03-15.53.05M663.66,216.26c1.58,4.79,5.69,9.22,11.12,8.86,28.06.1,56.12-.22,84.17,0,3.03-1.98,4.77-5.47,5.99-8.79-33.76-.18-67.52-.06-101.28-.07M771.2,225.12c4.9-.42,9.82-.12,14.73-.4,4.93-.17,8.94-4.18,10.61-8.6-7.28.06-14.56.01-21.83,0-.86,3.12-1.94,6.18-3.51,9.01M801.34,339.61c-5.24,6.32-7.31,14.43-9.96,22.03-4.61,12.47-9.4,24.92-13.07,37.7,10.17.09,20.39.37,30.54-.14,1.75-3.76,2.86-7.77,4.43-11.6,4.07-12.04,9.16-23.68,13.4-35.65,2.36-6.67,5.85-13.17,11.28-17.84,2.68-2.54,5.87-4.4,8.88-6.51-7.34-.15-14.69-.11-22.02.05-9.11.26-17.66,5.11-23.48,11.96M853.28,328.48c-5.24,1.94-10.18,4.85-14.14,8.83-5.61,5.65-8.9,13.07-11.44,20.5-4.95,13.99-10.93,27.6-15.6,41.69,3.72.1,7.45.11,11.18.07,2.92-8.93,6.67-17.55,9.84-26.38,2.9-7.38,5.29-14.97,8.43-22.25,4.52-10.3,13.06-18.66,23.33-23.18-3.87.07-7.85-.47-11.6.72M881.63,329c.1,12.89-.79,25.86.5,38.7,8.24.98,16.68-5.27,17.59-13.62,2.3-11.34-6.28-24.29-18.09-25.08M850.7,341.87c-6.6,7.98-9.68,18.01-13.25,27.55-3.27,10.23-7.63,20.06-11.27,30.16,9.02.16,18.03.01,27.06.03,2.37-7.72,5.86-15.04,8.53-22.66,1.54-4.25,2.76-8.81,5.96-12.18,1.78-1.77,1.22-4.47,1.35-6.74-.22-9.33.55-18.7-.51-28-6.95,2.03-13.33,6.19-17.87,11.84M460.19,335.44c-2.96,1.25-6.31,3.85-5.93,7.44-.08,29.37.09,58.76,0,88.13-.23,4.26,3.44,7.53,7.14,8.91.12-33.65.05-67.29-.04-100.93-.29-1.15.45-3.27-1.17-3.55M464.5,336.06c-.29,34.43.13,68.88-.08,103.31,3.96,1.13,8.36,1.15,12.17-.53,2.36-1.39,1.86-4.46,2.01-6.77.04-27.7-.3-55.39-.07-83.09-.22-4.04.94-9.03-2.66-11.96-3.53-1.61-7.6-1.28-11.37-.96M268.33,366.81c-.08,2.53,2.29,4.09,4.48,4.64,4.94,1.44,10,2.53,14.81,4.4.41-3.28,1.26-6.48,2.36-9.59-5.45-1.17-10.68-3.21-16.12-4.36-2.92-.75-5.97,1.92-5.53,4.91M295.82,381.82c-1.47-2.39-3.24-4.87-2.87-7.84.01-4.31,3.31-7.49,6.64-9.71-7.94,1.02-11.89,13.89-3.77,17.55M866.41,372.61c-3.71,8.9-6.59,18.11-10.18,27.06,4.33.06,8.65.07,12.98-.09-.32-10.05.43-20.13-.35-30.16-1.1.82-1.98,1.89-2.45,3.19M212.36,373c.32,10.32,1.11,20.62,1.69,30.93,4.96,3.61,10.47,7.76,11.98,14.04.64,7.01-5.13,12.27-10.52,15.72,2.03,24.43,2.8,48.95,4.49,73.4.43,16.1,2.22,32.12,2.48,48.22-4.78.45-9.57.53-14.36.6,1.79,10.12,4.03,21.55,12.57,28.28,4.18,3.64,9.98,3.23,15.15,3.28,3.98-.07,7.99.44,11.95-.09,4.14-2.42,5.19-7.91,4.68-12.36-4.7-67.96-8.82-136.03-13.55-203.95-8.78-.16-17.71,1.51-26.56,1.93M155.13,375.59c1.71,11.71,2.7,23.56,2.17,35.41-.66,6.19-1.43,12.36-2.03,18.55,2.8,2.42,5.36,5.26,6.18,9,0,.75.02,2.24.03,2.99,2.52.54,5.05,1.1,7.64,1.32-2.04-1.44-4.55-1.78-6.93-2.28-.11-.32-.35-.96-.46-1.27,2.95.21,6.21.26,8.69,2.12,1.81,2.22,2.01,5.43.56,7.92-.72-1.3-4.23,0-2.04.92.47-.11,1.4-.32,1.86-.43,1.44,1.31,2.29,3.35,1.16,5.16-2.39,2.46-6.06,2.35-9.22,2.49,1.07,2.54,3.92,3.32,6.19,4.43,4.37,1.74,8.63,3.79,13.13,5.2-.9-9.99-3.43-19.72-4.96-29.61-4.1-.17-8.21.05-12.29-.26-3.13-.3-4.46-3.63-5-6.29-1.13-5.61-3.29-11.19-2.44-17.01.85-6.15.81-13.31,5.62-17.9,3.52-1.4,7.59-.37,11.33-.56.18-7.77.04-15.54.15-23.32-6.55.51-12.91,2.21-19.34,3.42M178.04,372.12c-.94,7.64-.68,15.38-.6,23.07,6.82.24,13.61-1.16,20.43-.55,4.56,1.45,8.35,4.59,12.73,6.5-.35-9.24.04-18.56-1.42-27.71-4.83-.28-9.49,1.48-14.31,1.06-5.69-.26-11.14-2.15-16.83-2.37M498.82,375.97c-3.33,3.96-4.94,9.02-7.31,13.56-2.09,3.52-5,6.47-8.12,9.09.07.56.2,1.66.27,2.21-1.27,1.06-2.08,2.49-1.87,4.18-.17,8.38-.42,16.79.32,25.15.23,2.56,3.18,3.38,5.13,4.36,8.21,3.09,15.93,7.29,24.08,10.51-.18-.42-.55-1.27-.73-1.7-2.99-1.78-6.28-3-9.2-4.89,1.3-5.11.89-10.53.19-15.7-.87.48-1.31,1.2-1.32,2.16-.33,4.34-.56,8.74.06,13.07-4.34-1.62-8.74-3.31-12.54-6-.76-5.94.48-11.88.38-17.83-.1-1.5.04-3,.68-4.37-.89-3.79.97-8.27-1.26-11.58.34-1.07.83-2.05,1.5-2.93,4.85-5.24,6.75-12.34,10.75-18.17,5.79,4.76,5.52,13.82,11.41,18.46-.25-3.19-2.39-5.66-3.61-8.49-1.66-3.56-2.6-7.59-5.3-10.56-.84-1.01-2.54-1.78-3.51-.53M266,401.96c.54,4.25,2.73,8.32,4.53,12.23,4.5-12.11,9.02-24.22,13.49-36.34-2.8-.98-5.68-1.74-8.56-2.42-3.07,8.87-6.61,17.59-9.46,26.53M145.35,376.89c2.5,16.83,2.5,34.1,0,50.93,2.28.02,4.57,0,6.85-.07,2.3-15.45,2.54-31.19.65-46.7-.26-1.33-.27-2.74-.9-3.95-2.15-.6-4.42-.18-6.6-.21M242.33,378.39c.06,4.2.15,8.4.79,12.57,1.91,22.99,2.95,46.02,4.91,69.02.38,7.24.51,14.5,1.37,21.72-.07.76.62,2.73,1.58,1.51,10.31-7.93,18.8-17.89,28.39-26.64,1.16-1.11,2.97-2.43,2.09-4.28-6.81-17.19-12.63-34.77-19.9-51.77-2.07-5.05-4.43-9.98-6.19-15.15-.96-2.21-1.65-4.75-3.51-6.39-3.05-1.03-6.37-.47-9.53-.59M287.17,378.8c-1.38,3.32-2.56,6.73-3.99,10.04,3.02-1.31,5.75-3.31,7.53-6.13.05-1.88-2.2-2.92-3.54-3.91M143.15,421.91c1.22-12.9,1.36-25.97-.26-38.84-3.23,12.63-3.29,26.27.26,38.84M497.23,389.29l2.07.85.09-.45c1.06,6.13-.88,12.49.87,18.57,2.27-5.7,3.15-12.5.04-18.07.28-.38.85-1.13,1.13-1.5,1.59,1.97,1.95,4.79,3.93,6.46-.76-3.83-2.55-7.36-4.93-10.42-1.29,1.35-2.3,2.93-3.2,4.56M492.08,403.1c.84-4.28,3.35-7.91,4.48-12.07-3.55,3.01-4.01,7.74-4.48,12.07M497.39,395.94c-3.02,5.79-.6,12.23-1.06,18.36,2.24-.95,3.16,2.34,5.33,1.71,1.1-2.16,1.19-4.68,2.41-6.79,1.85-3.21,1.37-7.09,1.84-10.63,1.49.15,2.31.98,2.46,2.47-.18,5.62-1.83,11.05-4.57,15.94,1.89-2.36,4.66-4.61,4.72-7.88.08-3.77.37-7.52.54-11.28-1.41-.19-3.29-1.61-4.33,0-.29,3.75-.58,7.51-.76,11.28-1.91,1.94-3.84,3.93-6.34,5.1,0-6.1-.5-12.18-.24-18.28M665.74,399.93c-5.33,5.13-5.12,14.84.58,19.62,3.16,2.77,7.63,2.46,11.56,2.6,7.33-.13,14.71.34,22.02-.54-.28-.38-.83-1.13-1.1-1.5-8.64-.39-17.3.34-25.93-.04-5.02-.23-8.73-5.25-8.85-10.01-.62-5.99,4.81-11.73,10.75-11.73,33.45-.33,66.9-.03,100.35-.05.17-.52.52-1.57.7-2.09-33.34-.13-66.69-.01-100.03-.02-3.7-.17-7.53.95-10.05,3.76M165.84,397.87c2.65,11.99,2.66,24.76-.46,36.66.55-.23,1.63-.68,2.17-.91,3.41-11.31,3.59-23.72.84-35.2-.64-.14-1.91-.41-2.55-.55M171.57,398.47c2.87,11.69,2.28,24.07-.58,35.7,8.99.1,17.99.55,26.96,1.24,3.16.17,6.52.64,9.48-.83,6.01-2.55,12.42-6.24,14.94-12.61,1.93-4.95-2.11-9.08-5.5-12.04-5.77-4.82-12.34-8.65-19.01-12.06-8.75-.07-17.54.29-26.29.6M670.04,403.03c-3.84,2.65-4.39,8.65-1.18,12,1.98,2.25,5.22,1.98,7.95,2.06,7.16-.31,14.35-.08,21.52-.34-.19-6.53,3.92-12.25,9.38-15.46-9.6.28-19.21.07-28.81.04-3,.03-6.39-.39-8.86,1.7M163.3,401.85c-2.16,6.82-2.69,14.06-1.68,21.14.45,2.13.13,4.77,1.9,6.39,1.43-9.07,1.58-18.5-.22-27.53M716.86,402.54c-5.16-.34-10.32,2.07-13.25,6.35-5.03,7.3.16,19.25,9.33,19.58,17.05.24,34.12-.13,51.17.22,2.14,1.36-1.29,2.69-2.5,3.23-5.41,2.26-5.39,11.23.13,13.29.73.92,1.47,1.85,2.23,2.79-20.36.66-40.75-.15-61.12.38-3.05-.12-5.56,2.6-5.84,5.52-.03,1.59-.72,4.24,1.7,4.2.57-2.27.38-5.13,2.47-6.67,1.66-1.09,3.76-.72,5.64-.83,33.35.03,66.69,0,100.04-.06,24.33-.41,48.67.12,73-.35,1.47.19,2.17-.48,2.08-2.02-18.34-.13-36.68-.36-55.02-.33-6.72-.02-13.45.86-20.14.05,2.74-2.79,6.8-5.48,6.19-9.98-.31-4.39-4.75-6.3-8.32-7.57.56-.66,1.27-1.01,2.13-1.06,23.99-1.24,48.03-.47,72.05-.67,1.27.26,4.47-.5,2.26-2.03-11.04-.52-22.14.15-33.2-.08-13.12-.33-26.26.36-39.37-.34,1.87-2.07,4.89-2.63,6.57-4.93,1.69-1.88,3.31-4.76,1.67-7.17-1.94-3.05-4.98-6.4-8.95-5.97-4.34-.19-6.61,4.11-9.05,6.96-1.26-1.72-2.37-3.55-3.87-5.06-1.43-1.39-3.62-2.06-4.27-4.12.54-.27,1.61-.81,2.14-1.07,29.61-.17,59.26,0,88.88-.25-.01-.32-.02-.95-.03-1.27-8.61.04-17.2-.03-25.77-.62-46.33.33-92.65-.48-138.98-.12M491.22,406.02c-.63,2.7.2,5.72,2.5,7.4-.38-2.59-.56-5.44-2.5-7.4M522.81,407.4c1.63,2,4.51,2.42,6.03,4.57,3.35,3.89,2.89,9.33,2.93,14.12.03,3.51-1.4,7.32-4.49,9.24-1.49.94-4.26.26-4.46,2.55,2.99-.1,6.06-1.27,7.81-3.81,3.31-4.58,2.89-10.63,2.47-15.97-.76-5.1-4.45-11.11-10.29-10.7M817.06,408.5c.11.64.34,1.91.45,2.55.75-.77,1.48-1.58,2.18-2.42-.66-.03-1.98-.09-2.63-.13M822.58,408.65c-3.31,4.14-1.75,10-4.61,14.41,5.28.68,10.6.18,15.92.26,3.42-.06,6.95.43,10.26-.75,1.13-4.93,4.25-9.21,4.73-14.31-8.76.31-17.59-.43-26.3.39M846.87,423.2c7.43.39,14.88.07,22.32.21-.1-5.16-.11-10.32-.1-15.48-5.41.18-10.9-.52-16.23.27-1.95,5.02-3.95,10.02-5.99,15M872.2,408.2c.07,5.09-.02,10.18-.08,15.28,2.14-.04,4.29-.06,6.45-.08.13-5.03-.02-10.06.01-15.09-2.14-.03-4.26-.06-6.38-.11M523.48,412.05c-.1,7.21-.26,14.44-.1,21.65,3.99-1.38,5.71-5.66,5.34-9.63.05-4.33.03-10.76-5.24-12.02M506.91,417.55c1.05-.11,2.11-.21,3.18-.3.11-1.45.21-2.91.31-4.35-1.22,1.51-2.36,3.07-3.49,4.65M488.31,414.66c1.76,4.17,6.84,3.65,10.38,5.22,4.35,1.17,8.4,4.05,13.02,3.86-.61-1.3-1.22-2.76-2.88-2.84-6.9-1.91-13.71-4.1-20.52-6.24M491.17,428.04c.06,1.04,0,3.37,1.74,2.9.48-2.66.5-5.39.42-8.08.05-1.13-.47-1.93-1.56-2.4-.46,2.5-.67,5.04-.6,7.58M496.04,421.76c-.32,3.38-.55,6.77-.33,10.16-.13,1.1.98,1.54,1.65,2.19.09-3.86.41-7.73.2-11.59-.38-.19-1.14-.57-1.52-.76M504.43,424.05c.13,4.71.31,9.42.35,14.13.45.17,1.36.5,1.81.67-.04-4.27.05-8.54-.24-12.8.14-1.21-1.12-1.53-1.92-2M509.07,426.83c.05,3.9-.3,7.84.2,11.73.35.23,1.05.71,1.4.95.08-4.03.38-8.1-.03-12.12-.39-.14-1.18-.42-1.57-.56M659.35,437.4c-2.7,3.98-2.39,9.01-2.3,13.6.11,4.52,2.48,9.19,6.76,11.07,2.26.92,4.67,2.98,7.17,2.24.15-3.76-.98-7.51-.32-11.27,1.07-9.58,7.85-18.59,17.29-21.23,5.84-2.34,12.18-.93,18.26-1.74-1.23-1.04-2.66-1.78-4.29-1.67-8.71-.22-17.43-.06-26.14-.03-6.56-.08-13.03,3.4-16.43,9.03M813.23,431.32c3.05,3.8,2.58,8.81,1.92,13.32,6.6-.24,13.44.67,19.89-.43,1.64-4.16,3.33-8.33,4.58-12.64-8.8-.04-17.61.28-26.39-.25M872.14,431.76c-.04,4.46-.06,8.92.03,13.39,2.1,0,4.22,0,6.35,0,.12-4.44.19-8.88.07-13.31-2.16-.02-4.31-.05-6.45-.08M837.9,444.86c4.96.45,9.96.24,14.95.16,5.39-.36,10.8.48,16.2-.04-.12-4.44-.13-8.89.04-13.33-8.8-.02-17.59-.15-26.37.13-1.16,4.52-3.06,8.78-4.82,13.08M687.95,435.31c-4.93,1.58-9.37,5.01-11.65,9.71-2.72,5.37-3.15,11.6-2.27,17.47,1.75-1.24,3.19-2.85,4.84-4.22,2.18-1.12,4.76-.61,7.13-.8.64-10.56,10.47-19.08,20.8-19.43,16.12-.55,32.24.25,48.36.12.33-1.42.67-2.85,1.03-4.27-17.45.16-34.9,0-52.35.03-5.31.13-10.78-.31-15.89,1.39M202.85,438.63c-7.29.02-14.57-.44-21.85-.43.95,8.96,2.59,17.84,3.71,26.79.36,4.22,2.43,7.99,3.4,12.07,4.83,18.62,9.49,37.28,14.01,55.97,1.54,6.47,3.67,12.81,4.52,19.42,4.23.52,8.5.17,12.76.11-.02-5.54-.34-11.05-.93-16.55-.01-9.36-1.11-18.66-1.39-28-1.12-9.32-.37-18.76-1.67-28.06-.2-9.02-1.37-17.97-1.44-27-.98-5.61-.26-11.36-1.39-16.95-3.3.73-6.27,2.77-9.73,2.63M479.77,445.55c2.98-.09,5.97-.28,8.96-.46-.05-2.25-.08-4.49-.09-6.74-2.51-1-4.94-2.19-7.35-3.39-.92,3.46-1.31,7.02-1.52,10.59M491.76,439.47c0,2.25-.06,4.49-.13,6.75,2.1,1.06,4.23,2.07,6.4,3.03.02-2.33-.01-4.65-.16-6.96-2.07-.89-4.1-1.83-6.11-2.82M707.2,441.46c-8.56.27-18.29,6.67-18.07,16.04,1.39.01,2.79.02,4.2.05.51-3.19.62-6.69,2.74-9.31,1.92-2.78,5.58-3.43,8.73-3.52,16.92-.08,33.85-.05,50.78.05-.04-1.18-.06-2.36-.07-3.53-16.1.24-32.21-.19-48.31.22M474.64,442.83c-.65,10.96.18,21.94-.52,32.89,1.03-.07,2.08-.14,3.13-.19-1.1-11.01-.21-22.06-.69-33.1-.48.1-1.44.3-1.92.4M501,444.09c.11,2.1-.02,4.24.46,6.31,2.93,1.99,6.26,3.31,9.46,4.8-.17-2.41-.27-4.83-.35-7.24-3.23-1.19-6.42-2.49-9.57-3.87M160.73,446.73c2.81.7,6.2,2.07,8.76.11-.21-.31-.63-.92-.84-1.23-2.58.75-5.24,1.19-7.92,1.12M480.12,449.07c5.2,2.88,10.4,5.81,15.73,8.46,4.25.83,8.71.16,13.05.29-6-2.97-11.96-6.06-18.12-8.72-3.4-1.49-7.16-.49-10.66-.03M347.27,455.29c16.86.28,33.74.11,50.61.11,23.55-.19,47.11.14,70.66-.24-3.45-3.8-8.46-5.99-13.62-5.54-31.68-.06-63.36.02-95.04.03-4.77-.13-9.84,1.55-12.61,5.64M159.77,451.39c2.25.72,4.55,1.23,6.87,1.73-1.43.97-3.14,1.4-4.56,2.36,2.29.21,4.47-.94,6.65-1.53,0-.45-.01-1.33-.01-1.77-2.94-.56-5.95-1-8.95-.79M643.23,451.53c-13.24,12.67-25.78,26.1-39.25,38.55-2.15,2.07-4.72,3.83-6.17,6.52,13.23.38,26.46-.21,39.69.03,10.41-9.52,20.85-19,31.26-28.5-3.13-1.92-6.55-3.36-9.48-5.58-3.52-2.69-4.39-7.26-5.64-11.24-3.47.06-6.98-.36-10.41.22M480.35,453.08c.04,7.51-.14,15.02-.04,22.54,3.76,2.86,5.15,7.55,7.72,11.34,2.76,4.16,4.2,9.05,7.14,13.09.17-11,.01-22,.21-33-.1-2.03.28-4.17-.37-6.12-4.82-2.74-9.78-5.24-14.66-7.85M832.57,457.33c12.16-.05,24.32.26,36.48,0,0-1.35,0-2.71.03-4.05-11.06-.02-22.11.05-33.16.11-2.39-.39-2.66,2.35-3.35,3.94M872.07,453.36c.01,1.37.03,2.75.08,4.13,2.12-.02,4.25-.03,6.4-.03,0-1.39.02-2.76.05-4.13-2.19.02-4.36.03-6.53.03M702.18,454.16c-.05,1.15-.08,2.32-.1,3.49,41.89-.28,83.78-.05,125.67-.19,2.51.11,3.56-4.66.15-3.92-37.01.2-74.02.04-111.03.11-4.9.12-9.87-.61-14.69.51M346.18,459.09c-.09,4.19-.42,8.42.12,12.61.39,2.56,2.94,4.3,5.49,3.92,27.68-.04,55.35-.05,83.03-.08,11.75-.18,23.54.31,35.27-.24,1.6-4.91,1.19-10.28.41-15.31-.02-1.95-2.36-1.28-3.59-1.53-38.03-.16-76.06.09-114.09.09-2.23-.04-4.46.11-6.64.54M117.85,465.98c-10.75,3.04-21.64,6.33-31.11,12.42,3.08,2.11,7.04,2.01,10.56,2.91,22.2,3.8,45.49,5.51,65.59,16.64,11.44,6.95,22.17,14.99,32.83,23.08-3.58-16.68-8.36-33.11-12.28-49.7-7.45-4.14-16.1-5.93-23.06-10.99-2.15-1.59-5.02-.68-7.46-.62-11.81,1.28-23.71,2.64-35.07,6.26M498.62,461.08c-.07,1.43-.13,2.87-.18,4.31,9.04.41,18.11.18,27.16.2.02-1.49.04-2.97.07-4.45-9.02-.17-18.03.03-27.05-.06M680.3,461.45c-7.75,6.95-15.12,14.31-22.94,21.19-10.56,9.42-20.5,19.52-31.36,28.6-2.16,1.88-4.55,3.56-6.13,5.99,2.29-.1,5.1.67,6.79-1.4,17.82-16.54,36.37-32.27,54.31-48.69,2.58-2.75,6.63-1.45,9.95-1.66,63.5.32,127-.14,190.49.06.09-1.54.17-3.08.28-4.61-22.61-.63-45.24-.03-67.86-.23-37.97.06-75.94.09-113.91.13-6.53.27-13.21-.53-19.62.62M498.33,468.46c.14,21.17,0,42.35-.04,63.52.1,1.66-.37,3.47.42,5.02,1.98.6,4.11.31,6.17.37,51.73.05,103.46-.09,155.18.01,1.43-1.95,2.78-3.95,4.08-5.99,15.08-23.5,41.79-39.11,69.7-40.55,26.93-1.06,54.75,10.31,71.62,31.67,1.27,1.34,2.27,3.34,4.31,3.6,1.69.15,3.39-.03,5.09-.14,7.02-.74,14.03.82,21.06.03,14.46.41,28.89-.27,43.37-.33.06-19.05-.12-38.1.04-57.15-63.16.13-126.33.09-189.5.11-2.59.07-5.57-.24-7.59,1.71-15.56,13.78-31.15,27.53-46.54,41.5-3.32,2.72-6.21,5.99-9.84,8.31-3.66.55-7.37.2-11.04.25-22.3-.04-44.59.02-66.88-.08-5.69-.03-11.43-1.97-15.69-5.78-4.53-4.2-6.77-10.41-6.8-16.51,0-9.83.02-19.65,0-29.48-9.04.05-18.08.11-27.11-.09M344.96,487.09c-2.1,5.02-5.36,10.89-2.49,16.28,2.9,4.57,8.63,5.91,13.49,7.37,7.34,2.43,15.14,2.72,22.81,2.69,38.83.1,77.66.13,116.48.01-.11-2.94.6-6.21-1.11-8.82-5.17-7.75-8.53-16.55-13.52-24.41-.89-1.81-3.01-1.73-4.71-1.73-40.35.18-80.71-.06-121.07.05-5.28-.82-7.82,4.72-9.88,8.56M882.24,478.77c.28,11.28-.4,22.58.16,33.86,2.46-.59,7.08.01,7.32-3.53.96-9.61-.2-19.27-.16-28.9l-.94.08v-.98c-1.81-.3-3.6-.61-5.36-.92l-.02,1.27-1-.88M250.04,488.02c.05,6.83.75,13.65,1.24,20.46,4.69.54,9.19-.77,13.79-1.38-3.21-7.44-6.56-14.86-8.77-22.68.83-1.38,1.68-2.76,2.43-4.18-2.72,2.81-5.5,5.57-8.69,7.78M685.82,512.22c-10.83,8.61-19.58,19.77-25.8,32.09,4.02-.4,8.05-.66,12.09-.93,6.26-9.47,13.06-18.92,22.7-25.26,24.44-17.21,59.05-17.27,84.04-1.15,10.85,7.03,19.77,17.06,25.38,28.73,1.73,3.28,3.22,7.39,7.08,8.67,2.96.69,6.05.38,9.08.42-6.55-16.13-15.62-31.89-29.71-42.57-14.52-11.82-33.22-17.84-51.8-18.34-19.05.09-38.08,6.54-53.06,18.34M156.32,498.45c-2.05,5.33-3.32,10.93-4.95,16.4-1.03,4.04-2.79,7.94-2.98,12.16,1.25-1.81,1.46-4.07,2.13-6.11,2.37-7.62,4.62-15.28,7.03-22.89-.31.11-.92.33-1.23.44M532.84,499.61c-1.34.28-3.93-.59-4.21,1.33.95,7.86,7.6,14.36,15.33,15.61,7.91,1.07,15.9.7,23.85.72,13.7-.07,27.41-.03,41.11.01,2.54-.16,5.58.4,7.59-1.57,5.83-5.12,11.48-10.43,17.31-15.54-4.59-1.05-9.31-.49-13.96-.63-29.01-.2-58.02.57-87.02.07M160.39,500.1c-4.41,12.72-7.97,25.72-12.15,38.51-2.62,8.39-5.52,16.71-7.64,25.25,7.56,3.67,15.75,6.27,24.14,7.09,5.5-18.95,11.65-37.69,17.14-56.63-7.05-4.92-14.05-9.92-21.49-14.22M251.22,511.53c1.13,15.47,1.76,30.98,3.02,46.45-.18,8.89,2.83,18-.01,26.72,6.52.39,13.05.68,19.59.61,23.37-.08,46.74-.06,70.1-.15,13.34-.81,26.7-.15,40.05-.47-.95-.67-1.9-1.32-2.87-1.92-29.44-16.49-58.63-33.44-87.96-50.12-8.63-4.5-16.59-10.18-25.33-14.47-3.17-1.84-7.16-3.12-8.79-6.69-2.6-.22-5.21-.28-7.8.04M262.73,511.34c1.54,1.07,3.2,1.97,4.92,2.74-.41-.9-.82-1.79-1.23-2.67-1.24-.04-2.47-.06-3.69-.07M276.07,513.5c.98,3.9,2.53,8.07,6.6,9.67,23.37,13.3,46.66,26.75,70.06,40,12.29,7.43,25.19,13.83,37.41,21.35,9.44,1.95,19.16-.57,28.68.66,16.69-.23,33.37.1,50.06-.14,8.81-.81,17.69.22,26.5-.59-.27-22.62-.08-45.24-.2-67.86-37.33-.02-74.66.1-111.99-.08-8.35-.16-16.88.43-24.99-1.97-4.34-1.32-8.86-2.28-13.39-1.38-22.9.39-45.84-.28-68.74.34M184.46,517.28c-2.16,6.18-3.82,12.52-5.97,18.71,10.68,5.39,19.77,13.43,27.08,22.85-2.41-9.29-4.82-18.58-6.95-27.93-.64-2.05-.67-4.67-2.74-5.86-3.59-2.55-7.03-5.29-10.6-7.85-.2.02-.62.06-.82.08M810.84,529.25c4.79,7.12,8.56,14.88,11.84,22.81.55.88.72,2.75,2.22,2.46,23.67.08,47.34.02,71.02,0,2.59.26,5.68-1.5,5.41-4.41-.03-5.66.09-11.32.03-16.97.03-2.34-2.12-4.33-4.46-3.94-28.69,0-57.38.09-86.06.05M498.26,540.41c-.06,15.74.04,31.47-.03,47.21,3.4,1.92,6.92,3.65,10.1,5.93,4.11,4.04,10.32,1.62,15.44,2.22.3-11.91.31-23.85.42-35.79-.15-6.53.4-13.1-.39-19.6-8.51.15-17.03.09-25.54.03M527.15,540.43c.22,21.74-.15,43.49.2,65.21,23.29-.22,46.6-.28,69.9-.01.21-.66.63-1.99.84-2.65,2.11-14.68,5-29.24,7.36-43.88.93-6.27,2.61-12.43,3.2-18.75-1.9,0-3.8,0-5.68,0-3.46,19.72-7.36,39.37-10.7,59.11-1.6,1.79-4.28.83-6.37,1.09-17.58-.41-35.21.39-52.76-.47-1.07-19.88-.31-39.81-.54-59.71-1.83.02-3.64.04-5.45.07M535.86,540.4c-.79,4.51.37,9.03.25,13.56-.05,4.18-.08,8.35.09,12.53,19.63-.07,39.25-.06,58.88-.15,1.67-8.65,3.43-17.29,4.62-26.02-21.28.16-42.56.12-63.84.08M730.01,558.25c-21.83,2.94-40.94,21.55-42.91,43.75-2.34,17.42,5.48,35.71,19.57,46.18,6.19,4.75,13.47,8.07,21.2,9.3,16.57,3.06,34.58-3.19,45.61-15.96,9.59-10.88,14.09-26.04,12.05-40.39-1.17-10.34-6.3-19.93-13.11-27.65-10.6-11.47-26.89-17.59-42.41-15.23M114.54,565.68c-15.06,8.71-25.14,25.83-24.6,43.32-.04,13.74,6.06,27.43,16.28,36.61,9.1,8.29,21.44,12.56,33.66,12.69,12.9-.13,25.64-5.53,34.62-14.81,8.93-8.38,13.49-20.52,14.42-32.55.98-16.42-6.82-32.96-20.06-42.71-.46,1.26-.92,2.53-1.38,3.8,7.43,5.9,13.32,13.81,15.92,23.02,4.3,14.05,1.36,30.09-7.75,41.64-7.82,10.15-20.1,16.54-32.8,17.71-16.69,1.29-34.05-7.21-42.55-21.76-6.09-9.87-8.11-22.14-5.75-33.48,3.84-19.68,22.2-35.72,42.35-36.22,1.45-.74,1.36-2.83,2.08-4.14-8.59-.08-16.97,2.8-24.44,6.88M606.74,567.72c-.47,3.25-1,6.49-1.56,9.72,17.27,3.89,34.73,6.86,52.07,10.43.55-3.2,1.57-6.28,2.7-9.31-13.28-3.72-26.72-6.86-39.92-10.81-4.28-1.92-8.84.15-13.29-.03M144.38,569c-4.07,15.06-9.17,29.83-13.54,44.81,4.36,1.5,8.73,2.96,13.11,4.37,2.92-8.27,4.71-16.88,7.67-25.13,1.93-6.78,4.48-13.39,6.09-20.25-4.65-.52-8.89-2.51-13.33-3.8M535.73,569.63c.08,1.41.16,2.82.26,4.24,19.34-.05,38.68-.1,58.03-.06.2-1.47.41-2.94.62-4.4-19.63.32-39.27-.12-58.91.22M123.1,575.25c-14.74,7.06-23.58,24.71-20.13,40.74,2.54,11.64,10.61,22.41,21.91,26.75,14.67,6.3,33.18,1.9,43.23-10.57,7.55-9.05,10.41-21.74,7.38-33.14-2.35-8.8-8.06-16.67-15.7-21.62-1.18,4.56-2.81,8.98-4.06,13.52,9.41,8.83,9.77,25.37.4,34.39-8.82,9.2-24.9,9.32-33.77.14-5.37-5.62-7.83-14-6.03-21.59,1.77-9.6,10.33-17.28,19.94-18.49,1.41-4.6,2.87-9.19,4.4-13.76-6.04-.27-12.15.93-17.57,3.63M536.14,577.26c.29,6.77-.16,13.54.23,20.31,17.61-.27,35.24-.18,52.85-.03,2.02-6.6,2.87-13.56,3.92-20.37-13.43.58-26.82-.69-40.24-.39-5.58.48-11.17.55-16.76.48M246.88,590.44c-6.01.08-12.02-.06-18.02-.19.1,2.3.98,5.66,3.95,5.33,35.02.48,70.04-.1,105.06.08,56.02.08,112.03-.18,168.05.13-3.29-1.98-6.71-3.78-9.62-6.31-.91-.92-2.1-1.42-3.39-1.26-33.34.12-66.69.21-100.04-.02-46.02-.07-92.05.06-138.07.02-2.93-.35-5.04,2.39-7.92,2.22M119.96,602.97c-2.89,9.21,1.76,20.33,10.68,24.3,9.8,5.09,23.2-.07,27.21-10.32,3.53-7.45,1.93-16.58-3.41-22.75-2.08,8.16-4.54,16.21-6.95,24.27-.56,1.15-.75,3.71-2.62,3.11-6.24-1.55-12.52-3.46-18.11-6.72,3.04-8.72,5.85-17.51,8.6-26.33-7.14,1.81-13.42,7.24-15.4,14.44M230.89,599.36c2.03,3.57,5.57,6.61,9.95,6.16,93.67-.22,187.36.02,281.03-.14,3.36.16,2.05-4.08,1.73-6.08-5.88-1.43-11.83.13-17.76.03-17.97-.13-35.95,0-53.93-.1-12.02-.93-24.09-.34-36.13-.49-15.95.89-31.93-.27-47.91.02-11.37-.28-22.72.83-34.07,0-6.01-.31-11.98.72-17.98.2-6.32.69-12.63-.08-18.95-.16-21.98,1.5-44.02-.86-65.98.56M279.76,608.38c1.82,5.16,8.1,7.09,13.11,6.92,43.65.03,87.3-.02,130.95-.08,5.16.29,10.49-1.99,13.05-6.62-22.67-.44-45.35-.21-68.02-.27-29.7.04-59.39-.07-89.09.05Z"/>
    <path class="st0" d="M863.26,149.89c.12-2.28,3.18-1.52,3.36.29,6.13,13.6,6.59,28.95,5.23,43.56-.69-.06-2.08-.19-2.77-.25-.19-4.84.44-9.67.2-14.5-.11-9.98-2.16-19.91-6.02-29.1Z"/>
    <path class="st0" d="M678.85,154.92c.5-.12,1.49-.34,1.99-.46,6.69,11.41,9.41,25.23,7.84,38.36-.64-.06-1.93-.17-2.57-.22-.13-7.56,0-15.27-2.18-22.59-1.18-4.88-3.29-9.44-5.38-13.98l.3-1.11Z"/>
    <path class="st0" d="M856.15,163.47c-.2-1.72-1.71-4.15.8-4.88.39.2,1.17.6,1.56.8,2.32,9.01,3.05,19.33-1.82,27.67-3.32,6.03-10.3,9.59-17.11,9.17.03-.73.11-2.19.15-2.92,5.01-.28,10.28-1.98,13.31-6.25,4.77-6.82,4.58-15.74,3.11-23.59Z"/>
    <path class="st0" d="M383.84,172.93c38.02-3.84,75.96-8.52,113.95-12.67.15.75.46,2.26.61,3.01-25.87,3.24-51.82,5.82-77.69,9.01-24.32,2.54-48.65,5.03-72.94,7.86-22.99,2.49-46.03,4.51-68.98,7.42-4.52.49-9.04,1.12-13.59,1.18-.09-.71-.28-2.14-.37-2.85,15.29-2.32,30.75-3.37,46.1-5.24,24.33-2.37,48.62-4.99,72.91-7.72Z"/>
    <path class="st0" d="M511.95,165.04c-1.4-1.74,0-2.95,1.76-3.16,5.33,9.72,6.69,21.27,5.29,32.16-.72-.09-2.18-.27-2.91-.35.8-9.7.12-19.76-4.14-28.65Z"/>
    <path class="st0" d="M275.59,215.67c.78-1.24,2.5.31,3.62.21-1.41,4.41-4.14,8.21-6.04,12.4-20.83,43.95-41.17,88.13-61.76,132.19-.5,2.81-4.53.76-2.76-1.44,21.92-47.97,44.38-95.7,66.94-143.36Z"/>
    <path class="st0" d="M196.94,377.17c.63.06,1.9.2,2.53.27-.21,4.81.08,9.64-.59,14.42-.65-.08-1.95-.23-2.61-.31-.25-4.8-.36-9.67.67-14.38Z"/>
    <path class="st0" d="M485.86,399.65c.5.52,1,1.05,1.5,1.6-1.41,10.04-.61,20.28-1.47,30.38-.43-.23-1.3-.69-1.74-.91-.81-6.21-.35-12.5-.49-18.75.14-4.17-.63-8.81,2.2-12.32Z"/>
    <path class="st0" d="M706.43,408.59c4.36-5,11.53-3.75,17.43-3.94,21.63-.42,43.25.16,64.87.75-2.42,3.61-7.15,4.66-9.59,8.34-2.35-2.44-4.96-4.81-8.23-5.9-3.95-.18-7.07,3.24-8.36,6.68-1.06,2.72.93,5.25,2.37,7.4,1.54,1.16,3.16,2.24,4.76,3.36-2.54.74-5.14,1.31-7.79,1.19-16.35-.16-32.7.29-49.04,0-8.33-.39-12.19-12.21-6.42-17.88M718.2,408.55c-.18,4.99,3.97,8.4,7.59,11.11,3.75-1.69,7.42-3.9,9.63-7.5,2.41,2.63,4.3,6,7.41,7.86,5.62.59,10.05-4.32,12.43-8.89,1.69,1.7,2.18,4.32,4.21,5.73-.77-2.86-2.23-5.53-2.55-8.5-1.45.01-2.89.03-4.31.05.03,2.53.33,5.44-1.85,7.24-2.11,1.97-5.83,4.37-8.45,2-3.05-2.47-6.34-5.64-5.91-9.93-1.44.54-1.68,2.15-2.31,3.36-1.38,3.51-5.28,6.34-9.12,5.42-3.73-1.21-5.65-5.16-5.64-8.88-.29.24-.85.7-1.13.93M740.25,408.44c-.37,3.57,3.49,7.71,7.07,5.86,2.24-1.16,1.14-4.07,1.37-6.07-2.82-.07-5.65-.09-8.44.21M760.41,408.32c.03.61.09,1.81.12,2.41h1.89c.05-.65.14-1.96.19-2.61-.55.05-1.65.15-2.2.2M706.86,416.73c3.83.3,7.67.31,11.51.54-2.74-2.24-3.37-5.77-3.35-9.11-4.49.04-8.52,4-8.16,8.57M722.4,408.46c.18,2.04.95,4.79,3.45,4.93,2.95.32,5.03-2.3,5.65-4.91-3.04-.16-6.08-.16-9.1-.02M707.72,420.53c2.58,2.01,6.01,1.71,9.1,1.73,7.36-.16,14.73.22,22.09-.07,7.39-1.02,14.82.4,22.23-.11-.37-1.16-1.12-1.72-2.24-1.66-17.06-.09-34.12-.28-51.18.11Z"/>
    <path class="st0" d="M768.68,410.4c4.11-1.22,6.87,3.17,9.38,5.69l.37,1.07c-2.09,4.29-7.28,6.96-11.74,4.43-1.23-1.68-2.92-3.37-2.79-5.61-.06-2.7,2.17-5.12,4.78-5.58M771.67,418.12c.48-.16,1.44-.46,1.92-.61,1.92-1.76-.76-3.49-2.07-4.39-.35,1.66-.13,3.34.15,5M768.1,415.27c-1.52,2.98,3.34.12,0,0Z"/>
    <path class="st0" d="M780.61,415.98c1.83-3.04,4.56-6.11,8.28-6.56,4.31.13,6.78,4.27,8.64,7.62-1.7,2.98-3.96,6.27-7.68,6.65-3.25.55-5.74-1.97-7.78-4.08-.56-.84-1.14-1.68-1.66-2.51l.2-1.12M787.21,412.45c-2.58.7-4.33,4.08-1.96,6.06,2.1,3.54,8.38,2.49,9.03-1.49-.82-2.88-3.97-5.49-7.07-4.57Z"/>
    <path class="st0" d="M800.46,417.13c1.41-2.87,3.08-6.11,6.41-7.08,3.74-1.34,7.55,1.6,8.92,4.97.78,3.43-2.13,6.58-5.18,7.61-4.21,1.3-8.73-1.51-10.15-5.5M807.15,413.37c-1.57,1.25-2.89,3.86-1.28,5.59,2.73,2.72,8.09-.99,6.52-4.5-.86-2.13-3.61-2.7-5.24-1.09Z"/>
    <path class="st0" d="M779.17,417.79c1.08,1.03,2.14,2.09,3.1,3.26.65,1.48,1.46,2.88,2.33,4.27-1.92.07-3.83.14-5.72.27-2.09.07-4.18.01-6.25-.1,2.05-2.68,4.9-4.68,6.54-7.7Z"/>
    <path class="st0" d="M793.25,426.17c.91-3.43,4.31-5.47,5.6-8.78,1.92,2.97,5.79,4.9,6.07,8.73-3.89.23-7.79.15-11.67.05Z"/>
    <path class="st0" d="M767.12,428.39c2.72-.07,5.44-.1,8.17-.01,3.04.07,6.14.21,9.04,1.26-3.76,1.49-5.83,5.09-8.19,8.12-1.31-.27-1.72-1.85-2.58-2.69-1.47-2.36-4.09-3.46-6.46-4.63.01-.51.02-1.53.02-2.05Z"/>
    <path class="st0" d="M787.49,429.09c5.26-.64,10.96-1.06,15.95,1.1-2.32,1.08-5.11,1.82-6.37,4.28-.74,1.08-1.47,2.17-2.18,3.27-2.19-3.13-5.19-5.55-7.4-8.65Z"/>
    <path class="st0" d="M761.84,432.96c3.9-2.9,9.33.31,11.4,4.04,1.31,3.95-2.14,7.62-5.71,8.69-1.52-.08-3.01-.17-4.5-.33-2.32-1.49-3.7-3.88-4.74-6.35.87-2.15,1.43-4.74,3.55-6.05M762.42,435.55c-.08.52-.24,1.56-.32,2.09,2.7.08,5.42.15,8.14.15-1.38-3.1-5.08-2.59-7.82-2.24Z"/>
    <path class="st0" d="M778.27,441.58c-1.27-4.26,1.88-8.16,5.58-9.85,3.8-.9,7.06,2.51,8.67,5.59,1.15,3.61-2.23,6.36-4.54,8.56-4.01,1.91-7.09-1.88-9.71-4.3M780.51,437.44l-.25-.36c.26,1.45-.05,3.24,1.19,4.34,2.21,1.67,5.98,1.77,7.45-.92-2.84-.15-6.46.49-8.02-2.56,3.06-.76,6.23-.43,9.35-.25-1.57-3.57-8.22-4-9.72-.25Z"/>
    <path class="st0" d="M797.48,436.38c1.39-1.28,2.63-2.87,4.43-3.62,3.82-.97,8.19,1.59,9.44,5.27.51,4.76-4.47,8.34-8.93,7.36-2.86-2.11-6.59-4.95-4.94-9.01M800.01,436.18c1.48,2.41,4.13,2.71,6.74,2.51.5-3.85-4.32-3.77-6.74-2.51Z"/>
    <path class="st0" d="M768.04,447.09c3.35-1.8,6.04-4.53,7.81-7.9.73,1.44,1.49,2.87,2.34,4.27,1.11,1.77,2.72,3.15,4.19,4.63-4.63.07-9.25.31-13.87.21-.12-.3-.36-.91-.47-1.21Z"/>
    <path class="st0" d="M788.76,447.79c1.92-2.91,4.23-5.54,6.04-8.53,1.91,3.08,4.56,5.58,7.61,7.53-.01.19-.01.59-.01.79-4.55.32-9.1.31-13.64.21Z"/>
    <path class="st0" d="M195.08,443.2c1.29.24,3.47-.1,3.32,1.86,4.33,30.91,8.84,61.8,13.23,92.7-1.06-.04-2.11-.07-3.15-.09-3.26-23.88-6.98-47.69-10.21-71.58-.94-7.65-2.61-15.21-3.19-22.89Z"/>
    <path class="st0" d="M857.61,475.99c.27-.73.82-2.18,1.1-2.9,1.3.59,1.9,1.57,1.79,2.95-.02,13.65.08,27.31.03,40.97.11,1.36-.51,2.3-1.86,2.84-.56-1.92-1.06-3.87-1.08-5.87-.19-12.66.17-25.33.02-37.99Z"/>
    <path class="st0" d="M503.53,484c.08-3.22-.25-6.63,1.15-9.63,2.2-.96,2.36,2.28,2.46,3.66-.15,12.65.26,25.33-.39,37.98.24,3.89.8,7.83-.18,11.68-.59,0-1.76-.01-2.35-.01-.21-9.55.38-19.12-.53-28.63-.25-5.01-.05-10.03-.16-15.05Z"/>
    <path class="st0" d="M369.41,483.49c.93-1.15,4.07.06,2.53,1.51-4.97,6.79-4.2,16.49.87,23.01-1.22.25-2.83,1.27-3.47-.39-4.78-7.1-4.88-17.1.07-24.13Z"/>
    <path class="st0" d="M403.38,526.41c.98.04,1.97.07,2.96.12-.09,17.04.06,34.08-.01,51.12-1.02,0-2.02.04-3.01.07-.02-17.11.01-34.21.06-51.31Z"/>
    <path class="st0" d="M422.11,526.25c1.79-.77,3.8-.62,5.72-.68,15.01.05,30.02-.1,45.02.03,4.53-.21,8.2,4.04,8.28,8.38.22,12.36.12,24.72.12,37.07.02,3.91-3.31,7.75-7.35,7.59-8.01.24-16.04-.09-24.04.18-7.97.76-15.99.56-23.98.53-4.43.07-8.68-3.78-8.55-8.28-.12-12.7-.08-25.41-.06-38.1-.12-3,2.31-5.49,4.84-6.72M424.26,528.6c-2.26.66-4.33,2.89-4.03,5.4-.09,11.33.24,22.66-.06,34,.15,2.12-.45,4.74,1.31,6.37,2.4,2.57,6.25,1.83,9.41,1.94,12.98-.94,26.02-.69,39-.16,3.4-.01,8.35-.77,8.33-5.19.15-10.96-.17-21.93.07-32.89-.07-2.66.47-5.79-1.65-7.83-1.95-2.26-5.12-1.79-7.76-1.82-14.87.22-29.76-.06-44.62.18Z"/>
    <path class="st0" d="M273.89,530.15c1.32-2.06,2.85,1.52,2.43,2.75-.13,14.39.09,28.79-.07,43.18.68,1.28-2.39,2.43-2.38.91-.68-1.59-.38-3.35-.45-5.01.08-12.33-.02-24.67-.03-37,.14-1.6-.36-3.4.5-4.83Z"/>
    <path class="st0" d="M432.23,533.39c1.64-1.15,3.74-.85,5.64-.94,7.99.09,16,0,24,.1,3.61-.22,7.85,2.45,7.49,6.46-.06,9.3.23,18.61-.04,27.92-.1,3.25-3.48,5.2-6.44,5.23-8.68.39-17.38.15-26.06.22-3.11.19-6.73-1.1-7.59-4.39-1.81-7.91.68-15.99-.48-23.94-.41-3.76-.2-8.53,3.48-10.66M434.06,536.23c-3.46,2.19-2.1,7.24-2.52,10.73.58,7.05-1.15,14.47,1.16,21.27,9.26,1.37,18.8-.26,28.14.91,2.07.1,5.81-.32,5.54-3.18-.07-8.97.02-17.94.03-26.91.22-1.92-1.74-3.56-3.55-3.46-8.01-.03-16.01.09-24.02.03-1.6.09-3.32-.14-4.78.61Z"/>
    <path class="st0" d="M730.9,562.18c9.66-1.34,19.59,1.13,28.13,5.65,15.27,8.67,24.8,26.65,23.04,44.17-1.37,10.86-5.97,21.56-14.05,29.12-8.19,8.25-19.66,12.76-31.2,13.15-14.04.08-28-6.52-36.52-17.72-7.89-10.27-11.67-23.84-9.17-36.64,2.5-12.46,9.93-24.07,20.76-30.87,5.76-3.6,12.29-5.92,19.01-6.86M714.15,571.34c-6.13,3.72-10.88,9.22-15.04,14.98,4.92,4.92,10.41,9.23,15.46,14.03-1.63,5.05-1.51,10.48-.22,15.59-4.96,4.5-10.59,8.35-15.32,13.03,3.68,6.91,9.59,12.36,16.01,16.72,4.7-5.17,8.86-10.83,13.8-15.77,4.98.6,9.97.34,14.96-.06,5.16,4.69,8.95,10.66,13.72,15.72,6.46-4.53,12.98-9.8,16.33-17.13-5.69-3.7-10.32-8.74-15.69-12.85,1.48-4.98,1.16-10.17.16-15.19,4.74-4.86,10.37-8.97,15.34-13.67-4.09-6.51-9.39-12.37-16.07-16.27-3.81,4.59-7.91,8.94-11.81,13.46-1.01,1.08-2.14,2.69-3.88,2.04-4.35-.75-8.79-.63-13.11.22-3.9-4.47-7.76-8.97-11.67-13.42-.77-.75-1.75-2.52-2.97-1.43Z"/>
    <path class="st0" d="M730.41,591.7c5.43-1.8,11.75-1.07,16.39,2.4,6.38,4.68,8.84,14.04,5.36,21.19-3.27,7.14-11.73,11.23-19.36,9.53-7.07-1.33-13.06-7.52-13.67-14.76-.99-7.7,3.85-15.89,11.28-18.36M732.19,594.6c-5.98,1.93-10.34,7.98-9.83,14.33.03,7.81,7.9,14.07,15.51,12.93,8.92-.25,15.27-10.64,11.77-18.77-2.41-6.94-10.52-10.73-17.45-8.49Z"/>
    <path class="st0" d="M137.08,605.28c3.55-2.09,8.69,1.58,7.42,5.66-.76,4.38-7.64,4.5-9.36.77-.52-2.2-.42-5.32,1.94-6.43Z"/>
  </g>
  <g id="_x23_f4dd74ff">
    <path class="st1" d="M807.94,138.65c22.61-.77,45.22-1.99,67.85-2.29,5-.1,10.69.25,14.37,4.1,4.09,4.81,3.78,11.59,3.46,17.51-1.27,12.11-7.24,23.04-9.48,34.94-.91,4.18-.95,8.47-1.31,12.72-193.31.34-386.62.05-579.94.25-10.68-.15-21.35.52-32.03.13-8.05-.34-15.59-3.66-22.59-7.41-9.32-5.09-18.11-11.18-26.46-17.69,5.23-1.36,10.66-1.42,16.01-2.01,8.45-.83,16.89-1.77,25.33-2.62.17.65.5,1.97.67,2.63,4.57-.12,9.14-.22,13.71-.42.02-1.28.04-2.56.07-3.83,49.44-4.82,98.81-10.42,148.2-15.77,25.36-2.56,50.65-5.87,76.01-8.48,9.67-1.09,19.41-.98,29.11-1.45,54.3-1.75,108.58-4.17,162.87-5.95,38.05-1.5,76.11-2.68,114.15-4.36M863.26,149.89c3.86,9.19,5.91,19.12,6.02,29.1.24,4.83-.39,9.66-.2,14.5.69.06,2.08.19,2.77.25,1.36-14.61.9-29.96-5.23-43.56-.18-1.81-3.24-2.57-3.36-.29M678.85,154.92l-.3,1.11c2.09,4.54,4.2,9.1,5.38,13.98,2.18,7.32,2.05,15.03,2.18,22.59.64.05,1.93.16,2.57.22,1.57-13.13-1.15-26.95-7.84-38.36-.5.12-1.49.34-1.99.46M856.15,163.47c1.47,7.85,1.66,16.77-3.11,23.59-3.03,4.27-8.3,5.97-13.31,6.25-.04.73-.12,2.19-.15,2.92,6.81.42,13.79-3.14,17.11-9.17,4.87-8.34,4.14-18.66,1.82-27.67-.39-.2-1.17-.6-1.56-.8-2.51.73-1,3.16-.8,4.88M383.84,172.93c-24.29,2.73-48.58,5.35-72.91,7.72-15.35,1.87-30.81,2.92-46.1,5.24.09.71.28,2.14.37,2.85,4.55-.06,9.07-.69,13.59-1.18,22.95-2.91,45.99-4.93,68.98-7.42,24.29-2.83,48.62-5.32,72.94-7.86,25.87-3.19,51.82-5.77,77.69-9.01-.15-.75-.46-2.26-.61-3.01-37.99,4.15-75.93,8.83-113.95,12.67M511.95,165.04c4.26,8.89,4.94,18.95,4.14,28.65.73.08,2.19.26,2.91.35,1.4-10.89.04-22.44-5.29-32.16-1.76.21-3.16,1.42-1.76,3.16Z"/>
    <path class="st1" d="M263.16,138.34c4.03.12,8.06.16,12.09.13,4.29,9.08,8.48,18.23,13.36,27.02-12.5-.07-25.01.37-37.49-.08,4.56-8.77,8.15-18,12.04-27.07Z"/>
    <path class="st1" d="M257.42,206.22c9.86,3.84,20.58,2.34,30.89,2.69-13.77,41.11-26.91,82.44-39.76,123.84-3.16,10.75-6.45,21.47-9.04,32.37-.34.87-.24,2.63-1.67,2.42-9.72.72-19.43,1.54-29.09,2.74-5.47.43-10.95,1.94-16.45,1.01-5.08-.89-10.08-2.15-15.13-3.13,2.28-6.63,5.25-12.99,7.72-19.55,4.91,1.2,10.59,3.89,15.35.79,4.88-2.55,7.24-7.78,9.63-12.44,17.03-34.01,33.62-68.23,50.72-102.2,1.94-4.28,4.59-8.27,5.84-12.83.72-3.39,0-8.05-3.64-9.44-2.96-.45-5.93.27-8.86.58,1.25-2.24,2.4-4.52,3.49-6.85M275.59,215.67c-22.56,47.66-45.02,95.39-66.94,143.36-1.77,2.2,2.26,4.25,2.76,1.44,20.59-44.06,40.93-88.24,61.76-132.19,1.9-4.19,4.63-7.99,6.04-12.4-1.12.1-2.84-1.45-3.62-.21Z"/>
    <path class="st1" d="M853.28,328.48c3.75-1.19,7.73-.65,11.6-.72-10.27,4.52-18.81,12.88-23.33,23.18-3.14,7.28-5.53,14.87-8.43,22.25-3.17,8.83-6.92,17.45-9.84,26.38-3.73.04-7.46.03-11.18-.07,4.67-14.09,10.65-27.7,15.6-41.69,2.54-7.43,5.83-14.85,11.44-20.5,3.96-3.98,8.9-6.89,14.14-8.83Z"/>
    <path class="st1" d="M807.15,413.37c1.63-1.61,4.38-1.04,5.24,1.09,1.57,3.51-3.79,7.22-6.52,4.5-1.61-1.73-.29-4.34,1.28-5.59Z"/>
    <path class="st1" d="M687.95,435.31c5.11-1.7,10.58-1.26,15.89-1.39,17.45-.03,34.9.13,52.35-.03-.36,1.42-.7,2.85-1.03,4.27-16.12.13-32.24-.67-48.36-.12-10.33.35-20.16,8.87-20.8,19.43-2.37.19-4.95-.32-7.13.8-1.65,1.37-3.09,2.98-4.84,4.22-.88-5.87-.45-12.1,2.27-17.47,2.28-4.7,6.72-8.13,11.65-9.71Z"/>
    <path class="st1" d="M762.42,435.55c2.74-.35,6.44-.86,7.82,2.24-2.72,0-5.44-.07-8.14-.15.08-.53.24-1.57.32-2.09Z"/>
    <path class="st1" d="M800.01,436.18c2.42-1.26,7.24-1.34,6.74,2.51-2.61.2-5.26-.1-6.74-2.51Z"/>
    <path class="st1" d="M480.12,449.07c3.5-.46,7.26-1.46,10.66.03,6.16,2.66,12.12,5.75,18.12,8.72-4.34-.13-8.8.54-13.05-.29-5.33-2.65-10.53-5.58-15.73-8.46Z"/>
    <path class="st1" d="M347.27,455.29c2.77-4.09,7.84-5.77,12.61-5.64,31.68,0,63.36-.09,95.04-.03,5.16-.45,10.17,1.74,13.62,5.54-23.55.38-47.11.05-70.66.24-16.87,0-33.75.17-50.61-.11Z"/>
    <path class="st1" d="M498.62,461.08c9.02.09,18.03-.11,27.05.06-.03,1.48-.05,2.96-.07,4.45-9.05-.02-18.12.21-27.16-.2.05-1.44.11-2.88.18-4.31Z"/>
    <path class="st1" d="M680.3,461.45c6.41-1.15,13.09-.35,19.62-.62,37.97-.04,75.94-.07,113.91-.13,22.62.2,45.25-.4,67.86.23-.11,1.53-.19,3.07-.28,4.61-63.49-.2-126.99.26-190.49-.06-3.32.21-7.37-1.09-9.95,1.66-17.94,16.42-36.49,32.15-54.31,48.69-1.69,2.07-4.5,1.3-6.79,1.4,1.58-2.43,3.97-4.11,6.13-5.99,10.86-9.08,20.8-19.18,31.36-28.6,7.82-6.88,15.19-14.24,22.94-21.19Z"/>
    <path class="st1" d="M883.24,479.65l.02-1.27c1.76.31,3.55.62,5.35.92v.98c.02,2.12.08,4.24.14,6.37-1.84-.03-3.67-.06-5.49-.07-.03-2.31-.01-4.62-.02-6.93Z"/>
  </g>
  <g id="_x23_b0ccd4ff">
    <path class="st2" d="M266.43,168.5c2.38-.06,4.76-.14,7.15-.22.29,2.49.57,4.97.9,7.46-2.77.16-5.53.25-8.3.16.13-2.46.21-4.93.25-7.4Z"/>
    <path class="st2" d="M656.04,208.46c1.31.08,2.65.16,3.99.24.24,3.98.18,8.22,2.3,11.75,2.61,4.85,8.07,7.88,13.56,7.74,27.64-.05,55.29,0,82.93-.09,9.27-.44,18.58.74,27.82-.34,4.98-.56,9.24-4.03,11.58-8.35,1.82-3.32,2.3-7.13,3.12-10.77,1.13,0,2.28,0,3.43.03-.7,7.1-3.43,14.52-9.34,18.9-3.61,2.73-8.19,3.63-12.61,3.69-35.01.28-70.03.33-105.04.23-5.44.07-11.42-1.09-15.29-5.21-4.51-4.76-6.24-11.42-6.45-17.82Z"/>
    <path class="st2" d="M513.61,208.81c2.33.09,4.66.22,7,.36-.43,56.26-.07,112.54-.24,168.81.15,26.54-.18,53.08.02,79.63-2.13.07-4.25.13-6.37.2-.07-74.61-.01-149.22-.01-223.83-.1-8.39.33-16.8-.4-25.17Z"/>
    <path class="st2" d="M832.49,209.12c2.12.06,4.26.1,6.4.14-.44,31.92-.04,63.85-.15,95.78-.09,6.57.4,13.14.2,19.72-2.25-.04-4.48-.04-6.71-.03.48-38.54-.01-77.07.26-115.61Z"/>
    <path class="st2" d="M872.15,208.87c2.16-.13,4.33-.15,6.52-.11-.2,63.62-.03,127.24-.09,190.86-2.15.02-4.28.05-6.4.09-.14-63.61.21-127.22-.03-190.84Z"/>
    <path class="st2" d="M491.67,210.86c2.17,0,4.34,0,6.52.02.07,53.03.11,106.07.08,159.1.47,2.37-1.58,3.81-2.86,5.46-1.73,1.9-1.87,4.74-3.65,6.6-.24-57.06.06-114.12-.09-171.18Z"/>
    <path class="st2" d="M631.91,211.47c1.19,0,2.4-.02,3.62-.02-.05,5.98,2.03,12.16,7.02,15.8,5.58,4.27,13,1.8,19.41,2.79,2.4.92,4.58,2.33,6.88,3.47-6.31-.27-12.64-.06-18.94-.36-6.42-.18-12.25-4.43-15.01-10.11-1.94-3.56-2.48-7.62-2.98-11.57Z"/>
    <path class="st2" d="M763.11,225.45c3.52-3.61,4.96-8.44,5.63-13.31.94-.1,2.8-.31,3.74-.41-.6,4.41-1.46,9.05-4.31,12.62-1.35,1.26-3.4.83-5.06,1.1Z"/>
    <path class="st2" d="M251.78,216.89c3.67-.85,7.47-1.11,11.23-1.22.43,2.42.74,4.98-.34,7.29-1.84,4.62-4.15,9.03-6.46,13.42-17.01,33.74-33.54,67.73-50.29,101.6-1.96,4.07-4.92,8.14-9.43,9.53-3.35.47-6.55-1.09-9.74-1.86,1.23-4.32,3.64-8.16,5.44-12.24,19.38-39.08,39.17-77.98,59.59-116.52Z"/>
    <path class="st2" d="M268.33,366.81c-.44-2.99,2.61-5.66,5.53-4.91,5.44,1.15,10.67,3.19,16.12,4.36-1.1,3.11-1.95,6.31-2.36,9.59-4.81-1.87-9.87-2.96-14.81-4.4-2.19-.55-4.56-2.11-4.48-4.64Z"/>
    <path class="st2" d="M212.36,373c8.85-.42,17.78-2.09,26.56-1.93,4.73,67.92,8.85,135.99,13.55,203.95.51,4.45-.54,9.94-4.68,12.36-3.96.53-7.97.02-11.95.09-5.17-.05-10.97.36-15.15-3.28-8.54-6.73-10.78-18.16-12.57-28.28,4.79-.07,9.58-.15,14.36-.6-.26-16.1-2.05-32.12-2.48-48.22-1.69-24.45-2.46-48.97-4.49-73.4,5.39-3.45,11.16-8.71,10.52-15.72-1.51-6.28-7.02-10.43-11.98-14.04-.58-10.31-1.37-20.61-1.69-30.93Z"/>
    <path class="st2" d="M498.82,375.97c.97-1.25,2.67-.48,3.51.53,2.7,2.97,3.64,7,5.3,10.56,1.22,2.83,3.36,5.3,3.61,8.49-5.89-4.64-5.62-13.7-11.41-18.46-4,5.83-5.9,12.93-10.75,18.17-.67.88-1.16,1.86-1.5,2.93,2.23,3.31.37,7.79,1.26,11.58-.64,1.37-.78,2.87-.68,4.37.1,5.95-1.14,11.89-.38,17.83,3.8,2.69,8.2,4.38,12.54,6-.62-4.33-.39-8.73-.06-13.07.01-.96.45-1.68,1.32-2.16.7,5.17,1.11,10.59-.19,15.7,2.92,1.89,6.21,3.11,9.2,4.89.18.43.55,1.28.73,1.7-8.15-3.22-15.87-7.42-24.08-10.51-1.95-.98-4.9-1.8-5.13-4.36-.74-8.36-.49-16.77-.32-25.15-.21-1.69.6-3.12,1.87-4.18-.07-.55-.2-1.65-.27-2.21,3.12-2.62,6.03-5.57,8.12-9.09,2.37-4.54,3.98-9.6,7.31-13.56M485.86,399.65c-2.83,3.51-2.06,8.15-2.2,12.32.14,6.25-.32,12.54.49,18.75.44.22,1.31.68,1.74.91.86-10.1.06-20.34,1.47-30.38-.5-.55-1-1.08-1.5-1.6Z"/>
    <path class="st2" d="M266,401.96c2.85-8.94,6.39-17.66,9.46-26.53,2.88.68,5.76,1.44,8.56,2.42-4.47,12.12-8.99,24.23-13.49,36.34-1.8-3.91-3.99-7.98-4.53-12.23Z"/>
    <path class="st2" d="M145.35,376.89c2.18.03,4.45-.39,6.6.21.63,1.21.64,2.62.9,3.95,1.89,15.51,1.65,31.25-.65,46.7-2.28.07-4.57.09-6.85.07,2.5-16.83,2.5-34.1,0-50.93Z"/>
    <path class="st2" d="M143.15,421.91c-3.55-12.57-3.49-26.21-.26-38.84,1.62,12.87,1.48,25.94.26,38.84Z"/>
    <path class="st2" d="M497.23,389.29c.9-1.63,1.91-3.21,3.2-4.56,2.38,3.06,4.17,6.59,4.93,10.42-1.98-1.67-2.34-4.49-3.93-6.46-.32-.59-.98-1.75-1.31-2.33-.26,1.1-.53,2.21-.73,3.33l-.09.45-2.07-.85Z"/>
    <path class="st2" d="M497.39,395.94c-.26,6.1.25,12.18.24,18.28,2.5-1.17,4.43-3.16,6.34-5.1.18-3.77.47-7.53.76-11.28,1.04-1.61,2.92-.19,4.33,0-.17,3.76-.46,7.51-.54,11.28-.06,3.27-2.83,5.52-4.72,7.88,2.74-4.89,4.39-10.32,4.57-15.94-.15-1.49-.97-2.32-2.46-2.47-.47,3.54.01,7.42-1.84,10.63-1.22,2.11-1.31,4.63-2.41,6.79-2.17.63-3.09-2.66-5.33-1.71.46-6.13-1.96-12.57,1.06-18.36Z"/>
    <path class="st2" d="M665.74,399.93c2.52-2.81,6.35-3.93,10.05-3.76,33.34,0,66.69-.11,100.03.02-.18.52-.53,1.57-.7,2.09-33.45.02-66.9-.28-100.35.05-5.94,0-11.37,5.74-10.75,11.73.12,4.76,3.83,9.78,8.85,10.01,8.63.38,17.29-.35,25.93.04.27.37.82,1.12,1.1,1.5-7.31.88-14.69.41-22.02.54-3.93-.14-8.4.17-11.56-2.6-5.7-4.78-5.91-14.49-.58-19.62Z"/>
    <path class="st2" d="M165.84,397.87c.64.14,1.91.41,2.55.55,2.75,11.48,2.57,23.89-.84,35.2-.54.23-1.62.68-2.17.91,3.12-11.9,3.11-24.67.46-36.66Z"/>
    <path class="st2" d="M171.57,398.47c8.75-.31,17.54-.67,26.29-.6,6.67,3.41,13.24,7.24,19.01,12.06,3.39,2.96,7.43,7.09,5.5,12.04-2.52,6.37-8.93,10.06-14.94,12.61-2.96,1.47-6.32,1-9.48.83-8.97-.69-17.97-1.14-26.96-1.24,2.86-11.63,3.45-24.01.58-35.7Z"/>
    <path class="st2" d="M163.3,401.85c1.8,9.03,1.65,18.46.22,27.53-1.77-1.62-1.45-4.26-1.9-6.39-1.01-7.08-.48-14.32,1.68-21.14Z"/>
    <path class="st2" d="M788.73,405.4c.26-.29.79-.87,1.05-1.15.21.4.63,1.22.84,1.62.65,2.06,2.84,2.73,4.27,4.12,1.5,1.51,2.61,3.34,3.87,5.06,2.44-2.85,4.71-7.15,9.05-6.96,3.97-.43,7.01,2.92,8.95,5.97,1.64,2.41.02,5.29-1.67,7.17-1.68,2.3-4.7,2.86-6.57,4.93,13.11.7,26.25.01,39.37.34,11.06.23,22.16-.44,33.2.08,2.21,1.53-.99,2.29-2.26,2.03-24.02.2-48.06-.57-72.05.67-.86.05-1.57.4-2.13,1.06,3.57,1.27,8.01,3.18,8.32,7.57.61,4.5-3.45,7.19-6.19,9.98,6.69.81,13.42-.07,20.14-.05,18.34-.03,36.68.2,55.02.33.09,1.54-.61,2.21-2.08,2.02-24.33.47-48.67-.06-73,.35-33.35.06-66.69.09-100.04.06-1.88.11-3.98-.26-5.64.83-2.09,1.54-1.9,4.4-2.47,6.67-2.42.04-1.73-2.61-1.7-4.2.28-2.92,2.79-5.64,5.84-5.52,20.37-.53,40.76.28,61.12-.38-.76-.94-1.5-1.87-2.23-2.79.32.04.97.11,1.29.15,1.49.16,2.98.25,4.5.33l.51,1.4c.11.3.35.91.47,1.21,4.62.1,9.24-.14,13.87-.21-1.47-1.48-3.08-2.86-4.19-4.63.02-.47.06-1.41.08-1.88,2.62,2.42,5.7,6.21,9.71,4.3.25.63.52,1.27.78,1.91,4.54.1,9.09.11,13.64-.21,0-.2,0-.6.01-.79v-1.4c4.47.98,9.45-2.6,8.94-7.36-1.25-3.68-5.62-6.24-9.44-5.27-1.8.75-3.04,2.34-4.43,3.62-.1-.48-.31-1.44-.41-1.91,1.26-2.46,4.05-3.2,6.37-4.28-4.99-2.16-10.69-1.74-15.95-1.1-1.07.16-2.12.33-3.16.55-2.9-1.05-6-1.19-9.04-1.26,1.16-.96,2.35-1.91,3.59-2.79,1.89-.13,3.8-.2,5.72-.27-.87-1.39-1.68-2.79-2.33-4.27-.05-.36-.15-1.08-.2-1.44,2.04,2.11,4.53,4.63,7.78,4.08,3.72-.38,5.98-3.67,7.68-6.65-1.86-3.35-4.33-7.49-8.64-7.62-3.72.45-6.45,3.52-8.28,6.56-.27.42-.82,1.25-1.09,1.67-.36-.39-1.1-1.17-1.46-1.56-2.51-2.52-5.27-6.91-9.38-5.69-2.61.46-4.84,2.88-4.78,5.58-.13,2.24,1.56,3.93,2.79,5.61-.44.08-1.33.24-1.77.33-1.44-2.15-3.43-4.68-2.37-7.4,1.29-3.44,4.41-6.86,8.36-6.68,3.27,1.09,5.88,3.46,8.23,5.9,2.44-3.68,7.17-4.73,9.59-8.34M800.46,417.13c1.42,3.99,5.94,6.8,10.15,5.5,3.05-1.03,5.96-4.18,5.18-7.61-1.37-3.37-5.18-6.31-8.92-4.97-3.33.97-5,4.21-6.41,7.08M793.25,426.17c3.88.1,7.78.18,11.67-.05-.28-3.83-4.15-5.76-6.07-8.73-1.29,3.31-4.69,5.35-5.6,8.78Z"/>
    <path class="st2" d="M491.22,406.02c1.94,1.96,2.12,4.81,2.5,7.4-2.3-1.68-3.13-4.7-2.5-7.4Z"/>
    <path class="st2" d="M522.81,407.4c5.84-.41,9.53,5.6,10.29,10.7.42,5.34.84,11.39-2.47,15.97-1.75,2.54-4.82,3.71-7.81,3.81.2-2.29,2.97-1.61,4.46-2.55,3.09-1.92,4.52-5.73,4.49-9.24-.04-4.79.42-10.23-2.93-14.12-1.52-2.15-4.4-2.57-6.03-4.57Z"/>
    <path class="st2" d="M718.2,408.55c.28-.23.84-.69,1.13-.93-.01,3.72,1.91,7.67,5.64,8.88,3.84.92,7.74-1.91,9.12-5.42.63-1.21.87-2.82,2.31-3.36-.43,4.29,2.86,7.46,5.91,9.93,2.62,2.37,6.34-.03,8.45-2,2.18-1.8,1.88-4.71,1.85-7.24,1.42-.02,2.86-.04,4.31-.05.32,2.97,1.78,5.64,2.55,8.5-2.03-1.41-2.52-4.03-4.21-5.73-2.38,4.57-6.81,9.48-12.43,8.89-3.11-1.86-5-5.23-7.41-7.86-2.21,3.6-5.88,5.81-9.63,7.5-3.62-2.71-7.77-6.12-7.59-11.11Z"/>
    <path class="st2" d="M872.2,408.2c2.12.05,4.24.08,6.38.11-.03,5.03.12,10.06-.01,15.09-2.16.02-4.31.04-6.45.08.06-5.1.15-10.19.08-15.28Z"/>
    <path class="st2" d="M488.31,414.66c6.81,2.14,13.62,4.33,20.52,6.24,1.66.08,2.27,1.54,2.88,2.84-4.62.19-8.67-2.69-13.02-3.86-3.54-1.57-8.62-1.05-10.38-5.22Z"/>
    <path class="st2" d="M491.17,428.04c-.07-2.54.14-5.08.6-7.58,1.09.47,1.61,1.27,1.56,2.4.08,2.69.06,5.42-.42,8.08-1.74.47-1.68-1.86-1.74-2.9Z"/>
    <path class="st2" d="M496.04,421.76c.38.19,1.14.57,1.52.76.21,3.86-.11,7.73-.2,11.59-.67-.65-1.78-1.09-1.65-2.19-.22-3.39.01-6.78.33-10.16Z"/>
    <path class="st2" d="M504.43,424.05c.8.47,2.06.79,1.92,2,.29,4.26.2,8.53.24,12.8-.45-.17-1.36-.5-1.81-.67-.04-4.71-.22-9.42-.35-14.13Z"/>
    <path class="st2" d="M509.07,426.83c.39.14,1.18.42,1.57.56.41,4.02.11,8.09.03,12.12-.35-.24-1.05-.72-1.4-.95-.5-3.89-.15-7.83-.2-11.73Z"/>
    <path class="st2" d="M872.14,431.76c2.14.03,4.29.06,6.45.08.12,4.43.05,8.87-.07,13.31-2.13,0-4.25,0-6.35,0-.09-4.47-.07-8.93-.03-13.39Z"/>
    <path class="st2" d="M780.51,437.44c1.5-3.75,8.15-3.32,9.72.25-3.12-.18-6.29-.51-9.35.25-.1-.13-.28-.38-.37-.5Z"/>
    <path class="st2" d="M491.76,439.47c2.01.99,4.04,1.93,6.11,2.82.15,2.31.18,4.63.16,6.96-2.17-.96-4.3-1.97-6.4-3.03.07-2.26.12-4.5.13-6.75Z"/>
    <path class="st2" d="M159.77,451.39c3-.21,6.01.23,8.95.79,0,.44.01,1.32.01,1.77-2.18.59-4.36,1.74-6.65,1.53,1.42-.96,3.13-1.39,4.56-2.36-2.32-.5-4.62-1.01-6.87-1.73Z"/>
    <path class="st2" d="M872.07,453.36c2.17,0,4.34,0,6.53-.03-.03,1.37-.05,2.74-.05,4.13-2.15,0-4.28.01-6.4.03-.05-1.38-.07-2.76-.08-4.13Z"/>
    <path class="st2" d="M685.82,512.22c14.98-11.8,34.01-18.25,53.06-18.34,18.58.5,37.28,6.52,51.8,18.34,14.09,10.68,23.16,26.44,29.71,42.57-3.03-.04-6.12.27-9.08-.42-3.86-1.28-5.35-5.39-7.08-8.67-5.61-11.67-14.53-21.7-25.38-28.73-24.99-16.12-59.6-16.06-84.04,1.15-9.64,6.34-16.44,15.79-22.7,25.26-4.04.27-8.07.53-12.09.93,6.22-12.32,14.97-23.48,25.8-32.09Z"/>
    <path class="st2" d="M156.32,498.45c.31-.11.92-.33,1.23-.44-2.41,7.61-4.66,15.27-7.03,22.89-.67,2.04-.88,4.3-2.13,6.11.19-4.22,1.95-8.12,2.98-12.16,1.63-5.47,2.9-11.07,4.95-16.4Z"/>
    <path class="st2" d="M160.39,500.1c7.44,4.3,14.44,9.3,21.49,14.22-5.49,18.94-11.64,37.68-17.14,56.63-8.39-.82-16.58-3.42-24.14-7.09,2.12-8.54,5.02-16.86,7.64-25.25,4.18-12.79,7.74-25.79,12.15-38.51Z"/>
    <path class="st2" d="M810.84,529.25c28.68.04,57.37-.05,86.06-.05,2.34-.39,4.49,1.6,4.46,3.94.06,5.65-.06,11.31-.03,16.97.27,2.91-2.82,4.67-5.41,4.41-23.68.02-47.35.08-71.02,0-1.5.29-1.67-1.58-2.22-2.46-3.28-7.93-7.05-15.69-11.84-22.81Z"/>
    <path class="st2" d="M730.01,558.25c15.52-2.36,31.81,3.76,42.41,15.23,6.81,7.72,11.94,17.31,13.11,27.65,2.04,14.35-2.46,29.51-12.05,40.39-11.03,12.77-29.04,19.02-45.61,15.96-7.73-1.23-15.01-4.55-21.2-9.3-14.09-10.47-21.91-28.76-19.57-46.18,1.97-22.2,21.08-40.81,42.91-43.75M730.9,562.18c-6.72.94-13.25,3.26-19.01,6.86-10.83,6.8-18.26,18.41-20.76,30.87-2.5,12.8,1.28,26.37,9.17,36.64,8.52,11.2,22.48,17.8,36.52,17.72,11.54-.39,23.01-4.9,31.2-13.15,8.08-7.56,12.68-18.26,14.05-29.12,1.76-17.52-7.77-35.5-23.04-44.17-8.54-4.52-18.47-6.99-28.13-5.65Z"/>
    <path class="st2" d="M114.54,565.68c7.47-4.08,15.85-6.96,24.44-6.88-.72,1.31-.63,3.4-2.08,4.14-20.15.5-38.51,16.54-42.35,36.22-2.36,11.34-.34,23.61,5.75,33.48,8.5,14.55,25.86,23.05,42.55,21.76,12.7-1.17,24.98-7.56,32.8-17.71,9.11-11.55,12.05-27.59,7.75-41.64-2.6-9.21-8.49-17.12-15.92-23.02.46-1.27.92-2.54,1.38-3.8,13.24,9.75,21.04,26.29,20.06,42.71-.93,12.03-5.49,24.17-14.42,32.55-8.98,9.28-21.72,14.68-34.62,14.81-12.22-.13-24.56-4.4-33.66-12.69-10.22-9.18-16.32-22.87-16.28-36.61-.54-17.49,9.54-34.61,24.6-43.32Z"/>
    <path class="st2" d="M144.38,569c4.44,1.29,8.68,3.28,13.33,3.8-1.61,6.86-4.16,13.47-6.09,20.25-2.96,8.25-4.75,16.86-7.67,25.13-4.38-1.41-8.75-2.87-13.11-4.37,4.37-14.98,9.47-29.75,13.54-44.81M137.08,605.28c-2.36,1.11-2.46,4.23-1.94,6.43,1.72,3.73,8.6,3.61,9.36-.77,1.27-4.08-3.87-7.75-7.42-5.66Z"/>
    <path class="st2" d="M535.73,569.63c19.64-.34,39.28.1,58.91-.22-.21,1.46-.42,2.93-.62,4.4-19.35-.04-38.69.01-58.03.06-.1-1.42-.18-2.83-.26-4.24Z"/>
    <path class="st2" d="M714.15,571.34c1.22-1.09,2.2.68,2.97,1.43,3.91,4.45,7.77,8.95,11.67,13.42,4.32-.85,8.76-.97,13.11-.22,1.74.65,2.87-.96,3.88-2.04,3.9-4.52,8-8.87,11.81-13.46,6.68,3.9,11.98,9.76,16.07,16.27-4.97,4.7-10.6,8.81-15.34,13.67,1,5.02,1.32,10.21-.16,15.19,5.37,4.11,10,9.15,15.69,12.85-3.35,7.33-9.87,12.6-16.33,17.13-4.77-5.06-8.56-11.03-13.72-15.72-4.99.4-9.98.66-14.96.06-4.94,4.94-9.1,10.6-13.8,15.77-6.42-4.36-12.33-9.81-16.01-16.72,4.73-4.68,10.36-8.53,15.32-13.03-1.29-5.11-1.41-10.54.22-15.59-5.05-4.8-10.54-9.11-15.46-14.03,4.16-5.76,8.91-11.26,15.04-14.98M730.41,591.7c-7.43,2.47-12.27,10.66-11.28,18.36.61,7.24,6.6,13.43,13.67,14.76,7.63,1.7,16.09-2.39,19.36-9.53,3.48-7.15,1.02-16.51-5.36-21.19-4.64-3.47-10.96-4.2-16.39-2.4Z"/>
    <path class="st2" d="M123.1,575.25c5.42-2.7,11.53-3.9,17.57-3.63-1.53,4.57-2.99,9.16-4.4,13.76-9.61,1.21-18.17,8.89-19.94,18.49-1.8,7.59.66,15.97,6.03,21.59,8.87,9.18,24.95,9.06,33.77-.14,9.37-9.02,9.01-25.56-.4-34.39,1.25-4.54,2.88-8.96,4.06-13.52,7.64,4.95,13.35,12.82,15.7,21.62,3.03,11.4.17,24.09-7.38,33.14-10.05,12.47-28.56,16.87-43.23,10.57-11.3-4.34-19.37-15.11-21.91-26.75-3.45-16.03,5.39-33.68,20.13-40.74Z"/>
    <path class="st2" d="M119.96,602.97c1.98-7.2,8.26-12.63,15.4-14.44-2.75,8.82-5.56,17.61-8.6,26.33,5.59,3.26,11.87,5.17,18.11,6.72,1.87.6,2.06-1.96,2.62-3.11,2.41-8.06,4.87-16.11,6.95-24.27,5.34,6.17,6.94,15.3,3.41,22.75-4.01,10.25-17.41,15.41-27.21,10.32-8.92-3.97-13.57-15.09-10.68-24.3Z"/>
    <path class="st2" d="M732.19,594.6c6.93-2.24,15.04,1.55,17.45,8.49,3.5,8.13-2.85,18.52-11.77,18.77-7.61,1.14-15.48-5.12-15.51-12.93-.51-6.35,3.85-12.4,9.83-14.33Z"/>
    <path class="st2" d="M279.76,608.38c29.7-.12,59.39-.01,89.09-.05,22.67.06,45.35-.17,68.02.27-2.56,4.63-7.89,6.91-13.05,6.62-43.65.06-87.3.11-130.95.08-5.01.17-11.29-1.76-13.11-6.92Z"/>
  </g>
  <g id="_x23_324789ff">
    <path class="st4" d="M801.34,339.61c5.82-6.85,14.37-11.7,23.48-11.96,7.33-.16,14.68-.2,22.02-.05-3.01,2.11-6.2,3.97-8.88,6.51-5.43,4.67-8.92,11.17-11.28,17.84-4.24,11.97-9.33,23.61-13.4,35.65-1.57,3.83-2.68,7.84-4.43,11.6-10.15.51-20.37.23-30.54.14,3.67-12.78,8.46-25.23,13.07-37.7,2.65-7.6,4.72-15.71,9.96-22.03Z"/>
    <path class="st4" d="M881.63,329c11.81.79,20.39,13.74,18.09,25.08-.91,8.35-9.35,14.6-17.59,13.62-1.29-12.84-.4-25.81-.5-38.7Z"/>
    <path class="st4" d="M850.7,341.87c4.54-5.65,10.92-9.81,17.87-11.84,1.06,9.3.29,18.67.51,28-.13,2.27.43,4.97-1.35,6.74-3.2,3.37-4.42,7.93-5.96,12.18-2.67,7.62-6.16,14.94-8.53,22.66-9.03-.02-18.04.13-27.06-.03,3.64-10.1,8-19.93,11.27-30.16,3.57-9.54,6.65-19.57,13.25-27.55Z"/>
    <path class="st4" d="M460.19,335.44c1.62.28.88,2.4,1.17,3.55.09,33.64.16,67.28.04,100.93-3.7-1.38-7.37-4.65-7.14-8.91.09-29.37-.08-58.76,0-88.13-.38-3.59,2.97-6.19,5.93-7.44Z"/>
    <path class="st4" d="M242.33,378.39c3.16.12,6.48-.44,9.53.59,1.86,1.64,2.55,4.18,3.51,6.39,1.76,5.17,4.12,10.1,6.19,15.15,7.27,17,13.09,34.58,19.9,51.77.88,1.85-.93,3.17-2.09,4.28-9.59,8.75-18.08,18.71-28.39,26.64-.96,1.22-1.65-.75-1.58-1.51-.86-7.22-.99-14.48-1.37-21.72-1.96-23-3-46.03-4.91-69.02-.64-4.17-.73-8.37-.79-12.57Z"/>
    <path class="st4" d="M822.58,408.65c8.71-.82,17.54-.08,26.3-.39-.48,5.1-3.6,9.38-4.73,14.31-3.31,1.18-6.84.69-10.26.75-5.32-.08-10.64.42-15.92-.26,2.86-4.41,1.3-10.27,4.61-14.41Z"/>
    <path class="st4" d="M787.21,412.45c3.1-.92,6.25,1.69,7.07,4.57-.65,3.98-6.93,5.03-9.03,1.49-2.37-1.98-.62-5.36,1.96-6.06Z"/>
    <path class="st4" d="M771.67,418.12c-.28-1.66-.5-3.34-.15-5,1.31.9,3.99,2.63,2.07,4.39-.48.15-1.44.45-1.92.61Z"/>
    <path class="st4" d="M768.1,415.27c3.34.12-1.52,2.98,0,0Z"/>
    <path class="st4" d="M659.35,437.4c3.4-5.63,9.87-9.11,16.43-9.03,8.71-.03,17.43-.19,26.14.03,1.63-.11,3.06.63,4.29,1.67-6.08.81-12.42-.6-18.26,1.74-9.44,2.64-16.22,11.65-17.29,21.23-.66,3.76.47,7.51.32,11.27-2.5.74-4.91-1.32-7.17-2.24-4.28-1.88-6.65-6.55-6.76-11.07-.09-4.59-.4-9.62,2.3-13.6Z"/>
    <path class="st4" d="M813.23,431.32c8.78.53,17.59.21,26.39.25-1.25,4.31-2.94,8.48-4.58,12.64-6.45,1.1-13.29.19-19.89.43.66-4.51,1.13-9.52-1.92-13.32Z"/>
    <path class="st4" d="M780.26,437.08l.25.36c.09.12.27.37.37.5,1.56,3.05,5.18,2.41,8.02,2.56-1.47,2.69-5.24,2.59-7.45.92-1.24-1.1-.93-2.89-1.19-4.34Z"/>
    <path class="st4" d="M707.2,441.46c16.1-.41,32.21.02,48.31-.22.01,1.17.03,2.35.07,3.53-16.93-.1-33.86-.13-50.78-.05-3.15.09-6.81.74-8.73,3.52-2.12,2.62-2.23,6.12-2.74,9.31-1.41-.03-2.81-.04-4.2-.05-.22-9.37,9.51-15.77,18.07-16.04Z"/>
    <path class="st4" d="M168.94,450.27c-2.19-.92,1.32-2.22,2.04-.92l-.18.49c-.46.11-1.39.32-1.86.43Z"/>
    <path class="st4" d="M643.23,451.53c3.43-.58,6.94-.16,10.41-.22,1.25,3.98,2.12,8.55,5.64,11.24,2.93,2.22,6.35,3.66,9.48,5.58-10.41,9.5-20.85,18.98-31.26,28.5-13.23-.24-26.46.35-39.69-.03,1.45-2.69,4.02-4.45,6.17-6.52,13.47-12.45,26.01-25.88,39.25-38.55Z"/>
    <path class="st4" d="M702.18,454.16c4.82-1.12,9.79-.39,14.69-.51,37.01-.07,74.02.09,111.03-.11,3.41-.74,2.36,4.03-.15,3.92-41.89.14-83.78-.09-125.67.19.02-1.17.05-2.34.1-3.49Z"/>
    <path class="st4" d="M346.18,459.09c2.18-.43,4.41-.58,6.64-.54,38.03,0,76.06-.25,114.09-.09,1.23.25,3.57-.42,3.59,1.53.78,5.03,1.19,10.4-.41,15.31-11.73.55-23.52.06-35.27.24-27.68.03-55.35.04-83.03.08-2.55.38-5.1-1.36-5.49-3.92-.54-4.19-.21-8.42-.12-12.61Z"/>
    <path class="st4" d="M344.96,487.09c2.06-3.84,4.6-9.38,9.88-8.56,40.36-.11,80.72.13,121.07-.05,1.7,0,3.82-.08,4.71,1.73,4.99,7.86,8.35,16.66,13.52,24.41,1.71,2.61,1,5.88,1.11,8.82-38.82.12-77.65.09-116.48-.01-7.67.03-15.47-.26-22.81-2.69-4.86-1.46-10.59-2.8-13.49-7.37-2.87-5.39.39-11.26,2.49-16.28M369.41,483.49c-4.95,7.03-4.85,17.03-.07,24.13.64,1.66,2.25.64,3.47.39-5.07-6.52-5.84-16.22-.87-23.01,1.54-1.45-1.6-2.66-2.53-1.51Z"/>
    <path class="st4" d="M532.84,499.61c29,.5,58.01-.27,87.02-.07,4.65.14,9.37-.42,13.96.63-5.83,5.11-11.48,10.42-17.31,15.54-2.01,1.97-5.05,1.41-7.59,1.57-13.7-.04-27.41-.08-41.11-.01-7.95-.02-15.94.35-23.85-.72-7.73-1.25-14.38-7.75-15.33-15.61.28-1.92,2.87-1.05,4.21-1.33Z"/>
    <path class="st4" d="M251.22,511.53c2.59-.32,5.2-.26,7.8-.04,1.63,3.57,5.62,4.85,8.79,6.69,8.74,4.29,16.7,9.97,25.33,14.47,29.33,16.68,58.52,33.63,87.96,50.12.97.6,1.92,1.25,2.87,1.92-13.35.32-26.71-.34-40.05.47-23.36.09-46.73.07-70.1.15-6.54.07-13.07-.22-19.59-.61,2.84-8.72-.17-17.83.01-26.72-1.26-15.47-1.89-30.98-3.02-46.45M273.89,530.15c-.86,1.43-.36,3.23-.5,4.83,0,12.33.11,24.67.03,37,.07,1.66-.23,3.42.45,5.01,0,1.52,3.06.37,2.38-.91.16-14.39-.06-28.79.07-43.18.42-1.23-1.11-4.81-2.43-2.75Z"/>
    <path class="st4" d="M262.73,511.34c1.22.01,2.45.03,3.69.07.41.88.82,1.77,1.23,2.67-1.72-.77-3.38-1.67-4.92-2.74Z"/>
    <path class="st4" d="M246.88,590.44c2.88.17,4.99-2.57,7.92-2.22,46.02.04,92.05-.09,138.07-.02,33.35.23,66.7.14,100.04.02,1.29-.16,2.48.34,3.39,1.26,2.91,2.53,6.33,4.33,9.62,6.31-56.02-.31-112.03-.05-168.05-.13-35.02-.18-70.04.4-105.06-.08-2.97.33-3.85-3.03-3.95-5.33,6,.13,12.01.27,18.02.19Z"/>
  </g>
  <g id="_x23_c63036ff">
    <path class="st5" d="M464.5,336.06c3.77-.32,7.84-.65,11.37.96,3.6,2.93,2.44,7.92,2.66,11.96-.23,27.7.11,55.39.07,83.09-.15,2.31.35,5.38-2.01,6.77-3.81,1.68-8.21,1.66-12.17.53.21-34.43-.21-68.88.08-103.31Z"/>
    <path class="st5" d="M155.13,375.59c6.43-1.21,12.79-2.91,19.34-3.42-.11,7.78.03,15.55-.15,23.32-3.74.19-7.81-.84-11.33.56-4.81,4.59-4.77,11.75-5.62,17.9-.85,5.82,1.31,11.4,2.44,17.01.54,2.66,1.87,5.99,5,6.29,4.08.31,8.19.09,12.29.26,1.53,9.89,4.06,19.62,4.96,29.61-4.5-1.41-8.76-3.46-13.13-5.2-2.27-1.11-5.12-1.89-6.19-4.43,3.16-.14,6.83-.03,9.22-2.49,1.13-1.81.28-3.85-1.16-5.16l.18-.49c1.45-2.49,1.25-5.7-.56-7.92-2.48-1.86-5.74-1.91-8.69-2.12l-.28-.76c-.82-3.74-3.38-6.58-6.18-9,.6-6.19,1.37-12.36,2.03-18.55.53-11.85-.46-23.7-2.17-35.41Z"/>
    <path class="st5" d="M178.04,372.12c5.69.22,11.14,2.11,16.83,2.37,4.82.42,9.48-1.34,14.31-1.06,1.46,9.15,1.07,18.47,1.42,27.71-4.38-1.91-8.17-5.05-12.73-6.5-6.82-.61-13.61.79-20.43.55-.08-7.69-.34-15.43.6-23.07M196.94,377.17c-1.03,4.71-.92,9.58-.67,14.38.66.08,1.96.23,2.61.31.67-4.78.38-9.61.59-14.42-.63-.07-1.9-.21-2.53-.27Z"/>
    <path class="st5" d="M202.85,438.63c3.46.14,6.43-1.9,9.73-2.63,1.13,5.59.41,11.34,1.39,16.95.07,9.03,1.24,17.98,1.44,27,1.3,9.3.55,18.74,1.67,28.06.28,9.34,1.38,18.64,1.39,28,.59,5.5.91,11.01.93,16.55-4.26.06-8.53.41-12.76-.11-.85-6.61-2.98-12.95-4.52-19.42-4.52-18.69-9.18-37.35-14.01-55.97-.97-4.08-3.04-7.85-3.4-12.07-1.12-8.95-2.76-17.83-3.71-26.79,7.28-.01,14.56.45,21.85.43M195.08,443.2c.58,7.68,2.25,15.24,3.19,22.89,3.23,23.89,6.95,47.7,10.21,71.58,1.04.02,2.09.05,3.15.09-4.39-30.9-8.9-61.79-13.23-92.7.15-1.96-2.03-1.62-3.32-1.86Z"/>
    <path class="st5" d="M480.35,453.08c4.88,2.61,9.84,5.11,14.66,7.85.65,1.95.27,4.09.37,6.12-.2,11-.04,22-.21,33-2.94-4.04-4.38-8.93-7.14-13.09-2.57-3.79-3.96-8.48-7.72-11.34-.1-7.52.08-15.03.04-22.54Z"/>
    <path class="st5" d="M117.85,465.98c11.36-3.62,23.26-4.98,35.07-6.26,2.44-.06,5.31-.97,7.46.62,6.96,5.06,15.61,6.85,23.06,10.99,3.92,16.59,8.7,33.02,12.28,49.7-10.66-8.09-21.39-16.13-32.83-23.08-20.1-11.13-43.39-12.84-65.59-16.64-3.52-.9-7.48-.8-10.56-2.91,9.47-6.09,20.36-9.38,31.11-12.42Z"/>
    <path class="st5" d="M498.33,468.46c9.03.2,18.07.14,27.11.09.03,9.83,0,19.65,0,29.48.03,6.1,2.27,12.31,6.8,16.51,4.26,3.81,10,5.75,15.69,5.78,22.29.1,44.58.04,66.88.08,3.67-.05,7.38.3,11.04-.25,3.63-2.32,6.52-5.59,9.84-8.31,15.39-13.97,30.98-27.72,46.54-41.5,2.02-1.95,5-1.64,7.59-1.71,63.17-.02,126.34.02,189.5-.11-.16,19.05.02,38.1-.04,57.15-14.48.06-28.91.74-43.37.33-7.03.79-14.04-.77-21.06-.03-1.7.11-3.4.29-5.09.14-2.04-.26-3.04-2.26-4.31-3.6-16.87-21.36-44.69-32.73-71.62-31.67-27.91,1.44-54.62,17.05-69.7,40.55-1.3,2.04-2.65,4.04-4.08,5.99-51.72-.1-103.45.04-155.18-.01-2.06-.06-4.19.23-6.17-.37-.79-1.55-.32-3.36-.42-5.02.04-21.17.18-42.35.04-63.52M857.61,475.99c.15,12.66-.21,25.33-.02,37.99.02,2,.52,3.95,1.08,5.87,1.35-.54,1.97-1.48,1.86-2.84.05-13.66-.05-27.32-.03-40.97.11-1.38-.49-2.36-1.79-2.95-.28.72-.83,2.17-1.1,2.9M503.53,484c.11,5.02-.09,10.04.16,15.05.91,9.51.32,19.08.53,28.63.59,0,1.76.01,2.35.01.98-3.85.42-7.79.18-11.68.65-12.65.24-25.33.39-37.98-.1-1.38-.26-4.62-2.46-3.66-1.4,3-1.07,6.41-1.15,9.63Z"/>
    <path class="st5" d="M882.24,478.77l1,.88c.01,2.31-.01,4.62.02,6.93,1.82.01,3.65.04,5.49.07-.06-2.13-.12-4.25-.13-6.37l.94-.08c-.04,9.63,1.12,19.29.16,28.9-.24,3.54-4.86,2.94-7.32,3.53-.56-11.28.12-22.58-.16-33.86Z"/>
    <path class="st5" d="M276.07,513.5c22.9-.62,45.84.05,68.74-.34,4.53-.9,9.05.06,13.39,1.38,8.11,2.4,16.64,1.81,24.99,1.97,37.33.18,74.66.06,111.99.08.12,22.62-.07,45.24.2,67.86-8.81.81-17.69-.22-26.5.59-16.69.24-33.37-.09-50.06.14-9.52-1.23-19.24,1.29-28.68-.66-12.22-7.52-25.12-13.92-37.41-21.35-23.4-13.25-46.69-26.7-70.06-40-4.07-1.6-5.62-5.77-6.6-9.67M403.38,526.41c-.05,17.1-.08,34.2-.06,51.31.99-.03,1.99-.06,3.01-.07.07-17.04-.08-34.08.01-51.12-.99-.05-1.98-.08-2.96-.12M422.11,526.25c-2.53,1.23-4.96,3.72-4.84,6.72-.02,12.69-.06,25.4.06,38.1-.13,4.5,4.12,8.35,8.55,8.28,7.99.03,16.01.23,23.98-.53,8-.27,16.03.06,24.04-.18,4.04.16,7.37-3.68,7.35-7.59,0-12.35.1-24.71-.12-37.07-.08-4.34-3.75-8.59-8.28-8.38-15-.13-30.01.02-45.02-.03-1.92.06-3.93-.09-5.72.68Z"/>
    <path class="st5" d="M424.26,528.6c14.86-.24,29.75.04,44.62-.18,2.64.03,5.81-.44,7.76,1.82,2.12,2.04,1.58,5.17,1.65,7.83-.24,10.96.08,21.93-.07,32.89.02,4.42-4.93,5.18-8.33,5.19-12.98-.53-26.02-.78-39,.16-3.16-.11-7.01.63-9.41-1.94-1.76-1.63-1.16-4.25-1.31-6.37.3-11.34-.03-22.67.06-34-.3-2.51,1.77-4.74,4.03-5.4M432.23,533.39c-3.68,2.13-3.89,6.9-3.48,10.66,1.16,7.95-1.33,16.03.48,23.94.86,3.29,4.48,4.58,7.59,4.39,8.68-.07,17.38.17,26.06-.22,2.96-.03,6.34-1.98,6.44-5.23.27-9.31-.02-18.62.04-27.92.36-4.01-3.88-6.68-7.49-6.46-8-.1-16.01-.01-24-.1-1.9.09-4-.21-5.64.94Z"/>
    <path class="st5" d="M434.06,536.23c1.46-.75,3.18-.52,4.78-.61,8.01.06,16.01-.06,24.02-.03,1.81-.1,3.77,1.54,3.55,3.46-.01,8.97-.1,17.94-.03,26.91.27,2.86-3.47,3.28-5.54,3.18-9.34-1.17-18.88.46-28.14-.91-2.31-6.8-.58-14.22-1.16-21.27.42-3.49-.94-8.54,2.52-10.73Z"/>
    <path class="st5" d="M498.26,540.41c8.51.06,17.03.12,25.54-.03.79,6.5.24,13.07.39,19.6-.11,11.94-.12,23.88-.42,35.79-5.12-.6-11.33,1.82-15.44-2.22-3.18-2.28-6.7-4.01-10.1-5.93.07-15.74-.03-31.47.03-47.21Z"/>
    <path class="st5" d="M527.15,540.43c1.81-.03,3.62-.05,5.45-.07.23,19.9-.53,39.83.54,59.71,17.55.86,35.18.06,52.76.47,2.09-.26,4.77.7,6.37-1.09,3.34-19.74,7.24-39.39,10.7-59.11,1.88,0,3.78,0,5.68,0-.59,6.32-2.27,12.48-3.2,18.75-2.36,14.64-5.25,29.2-7.36,43.88-.21.66-.63,1.99-.84,2.65-23.3-.27-46.61-.21-69.9.01-.35-21.72.02-43.47-.2-65.21Z"/>
    <path class="st5" d="M535.86,540.4c21.28.04,42.56.08,63.84-.08-1.19,8.73-2.95,17.37-4.62,26.02-19.63.09-39.25.08-58.88.15-.17-4.18-.14-8.35-.09-12.53.12-4.53-1.04-9.05-.25-13.56Z"/>
    <path class="st5" d="M536.14,577.26c5.59.07,11.18,0,16.76-.48,13.42-.3,26.81.97,40.24.39-1.05,6.81-1.9,13.77-3.92,20.37-17.61-.15-35.24-.24-52.85.03-.39-6.77.06-13.54-.23-20.31Z"/>
    <path class="st5" d="M230.89,599.36c21.96-1.42,44,.94,65.98-.56,6.32.08,12.63.85,18.95.16,6,.52,11.97-.51,17.98-.2,11.35.83,22.7-.28,34.07,0,15.98-.29,31.96.87,47.91-.02,12.04.15,24.11-.44,36.13.49,17.98.1,35.96-.03,53.93.1,5.93.1,11.88-1.46,17.76-.03.32,2,1.63,6.24-1.73,6.08-93.67.16-187.36-.08-281.03.14-4.38.45-7.92-2.59-9.95-6.16Z"/>
  </g>
</svg>